%TF.GenerationSoftware,KiCad,Pcbnew,(5.1.12)-1*%
%TF.CreationDate,2023-10-12T19:31:41+05:30*%
%TF.ProjectId,DPT-V4,4450542d-5634-42e6-9b69-6361645f7063,rev?*%
%TF.SameCoordinates,Original*%
%TF.FileFunction,Legend,Top*%
%TF.FilePolarity,Positive*%
%FSLAX46Y46*%
G04 Gerber Fmt 4.6, Leading zero omitted, Abs format (unit mm)*
G04 Created by KiCad (PCBNEW (5.1.12)-1) date 2023-10-12 19:31:41*
%MOMM*%
%LPD*%
G01*
G04 APERTURE LIST*
%ADD10C,0.300000*%
%ADD11C,0.150000*%
%ADD12C,0.200000*%
%ADD13C,0.120000*%
%ADD14C,0.254000*%
G04 APERTURE END LIST*
D10*
X196891428Y-98412857D02*
X197105714Y-98484285D01*
X197177142Y-98555714D01*
X197248571Y-98698571D01*
X197248571Y-98912857D01*
X197177142Y-99055714D01*
X197105714Y-99127142D01*
X196962857Y-99198571D01*
X196391428Y-99198571D01*
X196391428Y-97698571D01*
X196891428Y-97698571D01*
X197034285Y-97770000D01*
X197105714Y-97841428D01*
X197177142Y-97984285D01*
X197177142Y-98127142D01*
X197105714Y-98270000D01*
X197034285Y-98341428D01*
X196891428Y-98412857D01*
X196391428Y-98412857D01*
X198105714Y-99198571D02*
X197962857Y-99127142D01*
X197891428Y-99055714D01*
X197820000Y-98912857D01*
X197820000Y-98484285D01*
X197891428Y-98341428D01*
X197962857Y-98270000D01*
X198105714Y-98198571D01*
X198320000Y-98198571D01*
X198462857Y-98270000D01*
X198534285Y-98341428D01*
X198605714Y-98484285D01*
X198605714Y-98912857D01*
X198534285Y-99055714D01*
X198462857Y-99127142D01*
X198320000Y-99198571D01*
X198105714Y-99198571D01*
X199034285Y-98198571D02*
X199605714Y-98198571D01*
X199248571Y-97698571D02*
X199248571Y-98984285D01*
X199320000Y-99127142D01*
X199462857Y-99198571D01*
X199605714Y-99198571D01*
X199891428Y-98198571D02*
X200462857Y-98198571D01*
X200105714Y-97698571D02*
X200105714Y-98984285D01*
X200177142Y-99127142D01*
X200320000Y-99198571D01*
X200462857Y-99198571D01*
X201177142Y-99198571D02*
X201034285Y-99127142D01*
X200962857Y-99055714D01*
X200891428Y-98912857D01*
X200891428Y-98484285D01*
X200962857Y-98341428D01*
X201034285Y-98270000D01*
X201177142Y-98198571D01*
X201391428Y-98198571D01*
X201534285Y-98270000D01*
X201605714Y-98341428D01*
X201677142Y-98484285D01*
X201677142Y-98912857D01*
X201605714Y-99055714D01*
X201534285Y-99127142D01*
X201391428Y-99198571D01*
X201177142Y-99198571D01*
X202320000Y-99198571D02*
X202320000Y-98198571D01*
X202320000Y-98341428D02*
X202391428Y-98270000D01*
X202534285Y-98198571D01*
X202748571Y-98198571D01*
X202891428Y-98270000D01*
X202962857Y-98412857D01*
X202962857Y-99198571D01*
X202962857Y-98412857D02*
X203034285Y-98270000D01*
X203177142Y-98198571D01*
X203391428Y-98198571D01*
X203534285Y-98270000D01*
X203605714Y-98412857D01*
X203605714Y-99198571D01*
X205391428Y-99127142D02*
X205534285Y-99198571D01*
X205820000Y-99198571D01*
X205962857Y-99127142D01*
X206034285Y-98984285D01*
X206034285Y-98912857D01*
X205962857Y-98770000D01*
X205820000Y-98698571D01*
X205605714Y-98698571D01*
X205462857Y-98627142D01*
X205391428Y-98484285D01*
X205391428Y-98412857D01*
X205462857Y-98270000D01*
X205605714Y-98198571D01*
X205820000Y-98198571D01*
X205962857Y-98270000D01*
X206534285Y-98198571D02*
X206820000Y-99198571D01*
X207105714Y-98484285D01*
X207391428Y-99198571D01*
X207677142Y-98198571D01*
X208248571Y-99198571D02*
X208248571Y-98198571D01*
X208248571Y-97698571D02*
X208177142Y-97770000D01*
X208248571Y-97841428D01*
X208320000Y-97770000D01*
X208248571Y-97698571D01*
X208248571Y-97841428D01*
X208748571Y-98198571D02*
X209320000Y-98198571D01*
X208962857Y-97698571D02*
X208962857Y-98984285D01*
X209034285Y-99127142D01*
X209177142Y-99198571D01*
X209320000Y-99198571D01*
X210462857Y-99127142D02*
X210320000Y-99198571D01*
X210034285Y-99198571D01*
X209891428Y-99127142D01*
X209820000Y-99055714D01*
X209748571Y-98912857D01*
X209748571Y-98484285D01*
X209820000Y-98341428D01*
X209891428Y-98270000D01*
X210034285Y-98198571D01*
X210320000Y-98198571D01*
X210462857Y-98270000D01*
X211105714Y-99198571D02*
X211105714Y-97698571D01*
X211748571Y-99198571D02*
X211748571Y-98412857D01*
X211677142Y-98270000D01*
X211534285Y-98198571D01*
X211320000Y-98198571D01*
X211177142Y-98270000D01*
X211105714Y-98341428D01*
X196402857Y-54958571D02*
X197260000Y-54958571D01*
X196831428Y-56458571D02*
X196831428Y-54958571D01*
X197974285Y-56458571D02*
X197831428Y-56387142D01*
X197760000Y-56315714D01*
X197688571Y-56172857D01*
X197688571Y-55744285D01*
X197760000Y-55601428D01*
X197831428Y-55530000D01*
X197974285Y-55458571D01*
X198188571Y-55458571D01*
X198331428Y-55530000D01*
X198402857Y-55601428D01*
X198474285Y-55744285D01*
X198474285Y-56172857D01*
X198402857Y-56315714D01*
X198331428Y-56387142D01*
X198188571Y-56458571D01*
X197974285Y-56458571D01*
X199117142Y-55458571D02*
X199117142Y-56958571D01*
X199117142Y-55530000D02*
X199260000Y-55458571D01*
X199545714Y-55458571D01*
X199688571Y-55530000D01*
X199760000Y-55601428D01*
X199831428Y-55744285D01*
X199831428Y-56172857D01*
X199760000Y-56315714D01*
X199688571Y-56387142D01*
X199545714Y-56458571D01*
X199260000Y-56458571D01*
X199117142Y-56387142D01*
X201545714Y-56387142D02*
X201688571Y-56458571D01*
X201974285Y-56458571D01*
X202117142Y-56387142D01*
X202188571Y-56244285D01*
X202188571Y-56172857D01*
X202117142Y-56030000D01*
X201974285Y-55958571D01*
X201760000Y-55958571D01*
X201617142Y-55887142D01*
X201545714Y-55744285D01*
X201545714Y-55672857D01*
X201617142Y-55530000D01*
X201760000Y-55458571D01*
X201974285Y-55458571D01*
X202117142Y-55530000D01*
X202688571Y-55458571D02*
X202974285Y-56458571D01*
X203260000Y-55744285D01*
X203545714Y-56458571D01*
X203831428Y-55458571D01*
X204402857Y-56458571D02*
X204402857Y-55458571D01*
X204402857Y-54958571D02*
X204331428Y-55030000D01*
X204402857Y-55101428D01*
X204474285Y-55030000D01*
X204402857Y-54958571D01*
X204402857Y-55101428D01*
X204902857Y-55458571D02*
X205474285Y-55458571D01*
X205117142Y-54958571D02*
X205117142Y-56244285D01*
X205188571Y-56387142D01*
X205331428Y-56458571D01*
X205474285Y-56458571D01*
X206617142Y-56387142D02*
X206474285Y-56458571D01*
X206188571Y-56458571D01*
X206045714Y-56387142D01*
X205974285Y-56315714D01*
X205902857Y-56172857D01*
X205902857Y-55744285D01*
X205974285Y-55601428D01*
X206045714Y-55530000D01*
X206188571Y-55458571D01*
X206474285Y-55458571D01*
X206617142Y-55530000D01*
X207260000Y-56458571D02*
X207260000Y-54958571D01*
X207902857Y-56458571D02*
X207902857Y-55672857D01*
X207831428Y-55530000D01*
X207688571Y-55458571D01*
X207474285Y-55458571D01*
X207331428Y-55530000D01*
X207260000Y-55601428D01*
X61038571Y-83810000D02*
X59538571Y-83810000D01*
X59538571Y-83452857D01*
X59610000Y-83238571D01*
X59752857Y-83095714D01*
X59895714Y-83024285D01*
X60181428Y-82952857D01*
X60395714Y-82952857D01*
X60681428Y-83024285D01*
X60824285Y-83095714D01*
X60967142Y-83238571D01*
X61038571Y-83452857D01*
X61038571Y-83810000D01*
X60895714Y-81452857D02*
X60967142Y-81524285D01*
X61038571Y-81738571D01*
X61038571Y-81881428D01*
X60967142Y-82095714D01*
X60824285Y-82238571D01*
X60681428Y-82310000D01*
X60395714Y-82381428D01*
X60181428Y-82381428D01*
X59895714Y-82310000D01*
X59752857Y-82238571D01*
X59610000Y-82095714D01*
X59538571Y-81881428D01*
X59538571Y-81738571D01*
X59610000Y-81524285D01*
X59681428Y-81452857D01*
X60252857Y-79167142D02*
X60324285Y-78952857D01*
X60395714Y-78881428D01*
X60538571Y-78810000D01*
X60752857Y-78810000D01*
X60895714Y-78881428D01*
X60967142Y-78952857D01*
X61038571Y-79095714D01*
X61038571Y-79667142D01*
X59538571Y-79667142D01*
X59538571Y-79167142D01*
X59610000Y-79024285D01*
X59681428Y-78952857D01*
X59824285Y-78881428D01*
X59967142Y-78881428D01*
X60110000Y-78952857D01*
X60181428Y-79024285D01*
X60252857Y-79167142D01*
X60252857Y-79667142D01*
X60038571Y-77524285D02*
X61038571Y-77524285D01*
X60038571Y-78167142D02*
X60824285Y-78167142D01*
X60967142Y-78095714D01*
X61038571Y-77952857D01*
X61038571Y-77738571D01*
X60967142Y-77595714D01*
X60895714Y-77524285D01*
X60967142Y-76881428D02*
X61038571Y-76738571D01*
X61038571Y-76452857D01*
X60967142Y-76310000D01*
X60824285Y-76238571D01*
X60752857Y-76238571D01*
X60610000Y-76310000D01*
X60538571Y-76452857D01*
X60538571Y-76667142D01*
X60467142Y-76810000D01*
X60324285Y-76881428D01*
X60252857Y-76881428D01*
X60110000Y-76810000D01*
X60038571Y-76667142D01*
X60038571Y-76452857D01*
X60110000Y-76310000D01*
X240714285Y-90931428D02*
X240785714Y-90860000D01*
X240928571Y-90788571D01*
X241285714Y-90788571D01*
X241428571Y-90860000D01*
X241500000Y-90931428D01*
X241571428Y-91074285D01*
X241571428Y-91217142D01*
X241500000Y-91431428D01*
X240642857Y-92288571D01*
X241571428Y-92288571D01*
X242857142Y-91288571D02*
X242857142Y-92288571D01*
X242500000Y-90717142D02*
X242142857Y-91788571D01*
X243071428Y-91788571D01*
X243428571Y-90788571D02*
X243928571Y-92288571D01*
X244428571Y-90788571D01*
X236922857Y-108898571D02*
X236922857Y-110398571D01*
X236922857Y-108970000D02*
X237065714Y-108898571D01*
X237351428Y-108898571D01*
X237494285Y-108970000D01*
X237565714Y-109041428D01*
X237637142Y-109184285D01*
X237637142Y-109612857D01*
X237565714Y-109755714D01*
X237494285Y-109827142D01*
X237351428Y-109898571D01*
X237065714Y-109898571D01*
X236922857Y-109827142D01*
X238137142Y-108898571D02*
X238422857Y-109898571D01*
X238708571Y-109184285D01*
X238994285Y-109898571D01*
X239280000Y-108898571D01*
X239851428Y-109898571D02*
X239851428Y-108898571D01*
X239851428Y-109041428D02*
X239922857Y-108970000D01*
X240065714Y-108898571D01*
X240280000Y-108898571D01*
X240422857Y-108970000D01*
X240494285Y-109112857D01*
X240494285Y-109898571D01*
X240494285Y-109112857D02*
X240565714Y-108970000D01*
X240708571Y-108898571D01*
X240922857Y-108898571D01*
X241065714Y-108970000D01*
X241137142Y-109112857D01*
X241137142Y-109898571D01*
X236812857Y-74168571D02*
X236812857Y-75668571D01*
X236812857Y-74240000D02*
X236955714Y-74168571D01*
X237241428Y-74168571D01*
X237384285Y-74240000D01*
X237455714Y-74311428D01*
X237527142Y-74454285D01*
X237527142Y-74882857D01*
X237455714Y-75025714D01*
X237384285Y-75097142D01*
X237241428Y-75168571D01*
X236955714Y-75168571D01*
X236812857Y-75097142D01*
X238027142Y-74168571D02*
X238312857Y-75168571D01*
X238598571Y-74454285D01*
X238884285Y-75168571D01*
X239170000Y-74168571D01*
X239741428Y-75168571D02*
X239741428Y-74168571D01*
X239741428Y-74311428D02*
X239812857Y-74240000D01*
X239955714Y-74168571D01*
X240170000Y-74168571D01*
X240312857Y-74240000D01*
X240384285Y-74382857D01*
X240384285Y-75168571D01*
X240384285Y-74382857D02*
X240455714Y-74240000D01*
X240598571Y-74168571D01*
X240812857Y-74168571D01*
X240955714Y-74240000D01*
X241027142Y-74382857D01*
X241027142Y-75168571D01*
X59858571Y-57747142D02*
X61001428Y-57747142D01*
X60430000Y-58318571D02*
X60430000Y-57175714D01*
X59768571Y-102517142D02*
X60911428Y-102517142D01*
X214560000Y-45795714D02*
X214488571Y-45867142D01*
X214274285Y-45938571D01*
X214131428Y-45938571D01*
X213917142Y-45867142D01*
X213774285Y-45724285D01*
X213702857Y-45581428D01*
X213631428Y-45295714D01*
X213631428Y-45081428D01*
X213702857Y-44795714D01*
X213774285Y-44652857D01*
X213917142Y-44510000D01*
X214131428Y-44438571D01*
X214274285Y-44438571D01*
X214488571Y-44510000D01*
X214560000Y-44581428D01*
X215988571Y-45938571D02*
X215131428Y-45938571D01*
X215560000Y-45938571D02*
X215560000Y-44438571D01*
X215417142Y-44652857D01*
X215274285Y-44795714D01*
X215131428Y-44867142D01*
X199004285Y-45062857D02*
X199504285Y-45062857D01*
X199718571Y-45848571D02*
X199004285Y-45848571D01*
X199004285Y-44348571D01*
X199718571Y-44348571D01*
X201147142Y-45848571D02*
X200290000Y-45848571D01*
X200718571Y-45848571D02*
X200718571Y-44348571D01*
X200575714Y-44562857D01*
X200432857Y-44705714D01*
X200290000Y-44777142D01*
X214420000Y-115625714D02*
X214348571Y-115697142D01*
X214134285Y-115768571D01*
X213991428Y-115768571D01*
X213777142Y-115697142D01*
X213634285Y-115554285D01*
X213562857Y-115411428D01*
X213491428Y-115125714D01*
X213491428Y-114911428D01*
X213562857Y-114625714D01*
X213634285Y-114482857D01*
X213777142Y-114340000D01*
X213991428Y-114268571D01*
X214134285Y-114268571D01*
X214348571Y-114340000D01*
X214420000Y-114411428D01*
X214991428Y-114411428D02*
X215062857Y-114340000D01*
X215205714Y-114268571D01*
X215562857Y-114268571D01*
X215705714Y-114340000D01*
X215777142Y-114411428D01*
X215848571Y-114554285D01*
X215848571Y-114697142D01*
X215777142Y-114911428D01*
X214920000Y-115768571D01*
X215848571Y-115768571D01*
X199324285Y-114902857D02*
X199824285Y-114902857D01*
X200038571Y-115688571D02*
X199324285Y-115688571D01*
X199324285Y-114188571D01*
X200038571Y-114188571D01*
X200610000Y-114331428D02*
X200681428Y-114260000D01*
X200824285Y-114188571D01*
X201181428Y-114188571D01*
X201324285Y-114260000D01*
X201395714Y-114331428D01*
X201467142Y-114474285D01*
X201467142Y-114617142D01*
X201395714Y-114831428D01*
X200538571Y-115688571D01*
X201467142Y-115688571D01*
X247231428Y-78227142D02*
X246088571Y-78227142D01*
X247141428Y-91697142D02*
X245998571Y-91697142D01*
X246570000Y-92268571D02*
X246570000Y-91125714D01*
D11*
X233441600Y-51969630D02*
X234343950Y-51969630D01*
X234343950Y-51969630D02*
X234343950Y-52064730D01*
X233441600Y-52064730D02*
X233441600Y-51969630D01*
X234343950Y-52064730D02*
X233945400Y-52064730D01*
X233945400Y-52064730D02*
X233945400Y-52215280D01*
X232783850Y-52064780D02*
X232783850Y-51969630D01*
X232695517Y-51969683D02*
X232806500Y-51969680D01*
X233826500Y-52301330D02*
X233782345Y-52269621D01*
X233645945Y-52446838D02*
X233722358Y-52475661D01*
X233557032Y-52519284D02*
X233510089Y-52451383D01*
X232710250Y-52064730D02*
X232710250Y-52689680D01*
X232783850Y-51969630D02*
X233464250Y-51969630D01*
X233825400Y-52064730D02*
X233441600Y-52064730D01*
X233464250Y-52064780D02*
X233368050Y-52064780D01*
X233100253Y-51879628D02*
X232990436Y-51832685D01*
X233510089Y-52451383D02*
X233492516Y-52357995D01*
X232846695Y-52313286D02*
X232899314Y-52292329D01*
X233825400Y-52206260D02*
X233825400Y-52064730D01*
X233695173Y-52159816D02*
X233768202Y-52171711D01*
X232971238Y-52141194D02*
X232923101Y-52064781D01*
X233945377Y-52689670D02*
X233825400Y-52689680D01*
X233553099Y-52209648D02*
X233617615Y-52172262D01*
X233492516Y-52357995D02*
X233508943Y-52271923D01*
X233245750Y-52064780D02*
X233049900Y-52064780D01*
X233794242Y-52450769D02*
X233817440Y-52417964D01*
X233817440Y-52417964D02*
X233826500Y-52370424D01*
X233368050Y-52064780D02*
X233368050Y-52689680D01*
X233778955Y-52562890D02*
X233706474Y-52575336D01*
X232689844Y-51950417D02*
X232695517Y-51969683D01*
X232710250Y-52689680D02*
X232587950Y-52689680D01*
X232861953Y-51814565D02*
X232732870Y-51846226D01*
X233825400Y-52531180D02*
X233778955Y-52562890D01*
X233368050Y-52689680D02*
X233245750Y-52689680D01*
X233245750Y-52689680D02*
X233245750Y-52064780D01*
X233722358Y-52475661D02*
X233761387Y-52469438D01*
X232823448Y-52371579D02*
X232846695Y-52313286D01*
X233100278Y-52352912D02*
X233062943Y-52422505D01*
X232858593Y-52450282D02*
X232823448Y-52371579D01*
X233464250Y-51969630D02*
X233464250Y-52064780D01*
X233008583Y-52465515D02*
X232943519Y-52480250D01*
X232688715Y-51927767D02*
X232689844Y-51950417D01*
X233768202Y-52171711D02*
X233825400Y-52206260D01*
X233191402Y-51945339D02*
X233100253Y-51879628D01*
X233617615Y-52172262D02*
X233695173Y-52159816D01*
X233826500Y-52370424D02*
X233826500Y-52301330D01*
X233617073Y-52364700D02*
X233645945Y-52446838D01*
X232943519Y-52480250D02*
X232858593Y-52450282D01*
X232923101Y-52064781D02*
X232783850Y-52064780D01*
X232989906Y-52237968D02*
X232971238Y-52141194D01*
X232587950Y-52689680D02*
X232587950Y-52064730D01*
X232806500Y-52064730D02*
X232710250Y-52064730D01*
X232732870Y-51846226D02*
X232688715Y-51927767D01*
X232980254Y-52300245D02*
X232989906Y-52237968D01*
X233092960Y-52138355D02*
X233114465Y-52258328D01*
X233508943Y-52271923D02*
X233553099Y-52209648D01*
X233648783Y-52284902D02*
X233617073Y-52364700D01*
X233049900Y-52064780D02*
X233092960Y-52138355D01*
X232990436Y-51832685D02*
X232861953Y-51814565D01*
X233624983Y-52561198D02*
X233557032Y-52519284D01*
X233706474Y-52575336D02*
X233624983Y-52561198D01*
X232958200Y-52337580D02*
X232980254Y-52300245D01*
X233782345Y-52269621D02*
X233725744Y-52258318D01*
X232806500Y-51969680D02*
X232806500Y-52064730D01*
X232899314Y-52292329D02*
X232958200Y-52337580D01*
X233825400Y-52689680D02*
X233825400Y-52531180D01*
X233761387Y-52469438D02*
X233794242Y-52450769D01*
X233114465Y-52258328D02*
X233100278Y-52352912D01*
X233725744Y-52258318D02*
X233648783Y-52284902D01*
X233062943Y-52422505D02*
X233008583Y-52465515D01*
X232584579Y-51823572D02*
X232644564Y-51764184D01*
X232580050Y-51969680D02*
X232568154Y-51941355D01*
X231591130Y-52179086D02*
X231639817Y-52155888D01*
X232001526Y-51812330D02*
X231961900Y-51703580D01*
X232222303Y-51722848D02*
X232319674Y-51841676D01*
X231557728Y-52219259D02*
X231591130Y-52179086D01*
X231552605Y-52320016D02*
X231545240Y-52277553D01*
X231999250Y-52700980D02*
X231999241Y-52613815D01*
X232126050Y-52700980D02*
X231999250Y-52700980D01*
X232222300Y-51969680D02*
X232222300Y-52064730D01*
X231921135Y-52652843D02*
X231807933Y-52669321D01*
X231574660Y-52429283D02*
X231624491Y-52388513D01*
X232126050Y-52064730D02*
X232126050Y-52700980D01*
X232222300Y-52064730D02*
X232126050Y-52064730D01*
X232418200Y-52064730D02*
X232418200Y-52689680D01*
X232387575Y-51969663D02*
X232514400Y-51969680D01*
X233022152Y-51737006D02*
X233163083Y-51797589D01*
X232199650Y-51969680D02*
X232291350Y-51969680D01*
X232176456Y-51822477D02*
X232085307Y-51795298D01*
X232291350Y-51969680D02*
X232248339Y-51905113D01*
X232319674Y-51841676D02*
X232387575Y-51969663D01*
X233263882Y-52019462D02*
X233191402Y-51945339D01*
X232851754Y-51713760D02*
X233022152Y-51737006D01*
X231624491Y-52388513D02*
X231597907Y-52374924D01*
X231574660Y-52570213D02*
X231556590Y-52494945D01*
X233280809Y-52039823D02*
X233263882Y-52019462D01*
X233355535Y-51976452D02*
X233363494Y-51988898D01*
X233163083Y-51797589D02*
X233274591Y-51881919D01*
X232736261Y-51726798D02*
X232851754Y-51713760D01*
X232295850Y-52064730D02*
X232199650Y-52064730D01*
X232077391Y-51678644D02*
X232222303Y-51722848D01*
X232568154Y-51941355D02*
X232563074Y-51901728D01*
X232563074Y-51901728D02*
X232584579Y-51823572D01*
X232491750Y-52064730D02*
X232491750Y-51969680D01*
X231626232Y-52624573D02*
X231574660Y-52570213D01*
X232085307Y-51795298D02*
X232040604Y-51800378D01*
X231545240Y-52277553D02*
X231557728Y-52219259D01*
X232418200Y-52689680D02*
X232295850Y-52689680D01*
X232514400Y-51969680D02*
X232514400Y-52064730D01*
X231698060Y-52148522D02*
X231775100Y-52148530D01*
X231571872Y-52352274D02*
X231552605Y-52320016D01*
X231597907Y-52374924D02*
X231571872Y-52352274D01*
X231961900Y-51703580D02*
X232013422Y-51685460D01*
X231497700Y-52064730D02*
X231497700Y-51969680D01*
X231775100Y-52148530D02*
X231775100Y-52064730D01*
X231807933Y-52669321D02*
X231705434Y-52657975D01*
X232587950Y-52064730D02*
X232491750Y-52064730D01*
X231775100Y-52064730D02*
X231497700Y-52064730D01*
X231999241Y-52613815D02*
X231921135Y-52652843D01*
X232248339Y-51905113D02*
X232176456Y-51822477D01*
X232644564Y-51764184D02*
X232736261Y-51726798D01*
X231556590Y-52494945D02*
X231574660Y-52429283D01*
X232295850Y-52689680D02*
X232295850Y-52064730D01*
X232514400Y-52064730D02*
X232418200Y-52064730D01*
X231497700Y-51969680D02*
X232222300Y-51969680D01*
X231705434Y-52657975D02*
X231626232Y-52624573D01*
X232040604Y-51800378D02*
X232001526Y-51812330D01*
X231998100Y-52064730D02*
X231895100Y-52064730D01*
X233363494Y-51988898D02*
X233280809Y-52039823D01*
X233274591Y-51881919D02*
X233355535Y-51976452D01*
X232199650Y-52064730D02*
X232199650Y-51969680D01*
X231639817Y-52155888D02*
X231698060Y-52148522D01*
X232491750Y-51969680D02*
X232580050Y-51969680D01*
X232013422Y-51685460D02*
X232077391Y-51678644D01*
X234881637Y-52316067D02*
X234904288Y-52272459D01*
X234889596Y-52349470D02*
X234881637Y-52316067D01*
X234915680Y-52394173D02*
X234889596Y-52349470D01*
X235127348Y-52708937D02*
X234915680Y-52394173D01*
X235237215Y-52121928D02*
X235253046Y-52213076D01*
X234496830Y-51969679D02*
X234609950Y-51969680D01*
X235375868Y-52318327D02*
X235427392Y-52292291D01*
X234159407Y-52173018D02*
X234222777Y-52211350D01*
X234076730Y-51690010D02*
X234234684Y-51718335D01*
X234157165Y-52357852D02*
X234130483Y-52284376D01*
X234081252Y-52159825D02*
X234159407Y-52173018D01*
X235236021Y-52643227D02*
X235127348Y-52708937D01*
X234126002Y-52440040D02*
X234157165Y-52357852D01*
X235228155Y-52317168D02*
X235300586Y-52328513D01*
X235300600Y-52328530D02*
X235375868Y-52318327D01*
X234306600Y-51969680D02*
X234376800Y-51969680D01*
X235253046Y-52213076D02*
X235228155Y-52317168D01*
X235427400Y-52064730D02*
X235206550Y-52064730D01*
X233955613Y-51706438D02*
X234076730Y-51690010D01*
X233839021Y-52005871D02*
X233827676Y-51991135D01*
X234264096Y-52450049D02*
X234216556Y-52515362D01*
X235427392Y-52292291D02*
X235427400Y-52064730D01*
X234216556Y-52515362D02*
X234146961Y-52553643D01*
X234397150Y-52689680D02*
X234397150Y-52064730D01*
X234519450Y-52689680D02*
X234397150Y-52689680D01*
X234519450Y-52064730D02*
X234519450Y-52689680D01*
X233929570Y-51871163D02*
X233920510Y-51919849D01*
X233802785Y-51948722D02*
X233793726Y-51898293D01*
X234265788Y-52273725D02*
X234281669Y-52357905D01*
X234356945Y-51788477D02*
X234444709Y-51879127D01*
X234609950Y-52064730D02*
X234519450Y-52064730D01*
X234444709Y-51879127D02*
X234496830Y-51969679D01*
X234609950Y-51969680D02*
X234609950Y-52064730D01*
X234052974Y-52466624D02*
X234126002Y-52440040D01*
X234234684Y-51718335D02*
X234356945Y-51788477D01*
X233866754Y-51751739D02*
X233955613Y-51706438D01*
X233999163Y-52175256D02*
X234081252Y-52159825D01*
X234017879Y-52463237D02*
X234052974Y-52466624D01*
X233812394Y-51818544D02*
X233866754Y-51751739D01*
X233827676Y-51991135D02*
X233802785Y-51948722D01*
X233945400Y-52215280D02*
X233999163Y-52175256D01*
X234187732Y-51808339D02*
X234085832Y-51790767D01*
X234146961Y-52553643D02*
X234061986Y-52566286D01*
X233793726Y-51898293D02*
X233812394Y-51818544D01*
X234009368Y-51801519D02*
X233958442Y-51829795D01*
X233931813Y-51977595D02*
X233839021Y-52005871D01*
X233920510Y-51919849D02*
X233931813Y-51977595D01*
X234270916Y-51851948D02*
X234187732Y-51808339D01*
X234334287Y-51909644D02*
X234270916Y-51851948D01*
X234376800Y-51969680D02*
X234334287Y-51909644D01*
X234130483Y-52284376D02*
X234056360Y-52258340D01*
X234222777Y-52211350D02*
X234265788Y-52273725D01*
X234306600Y-52064730D02*
X234306600Y-51969680D01*
X233973724Y-52291544D02*
X233945398Y-52381896D01*
X234061986Y-52566286D02*
X234031470Y-52564000D01*
X234004290Y-52559513D02*
X234017879Y-52463237D01*
X234056360Y-52258340D02*
X233973724Y-52291544D01*
X234281669Y-52357905D02*
X234264096Y-52450049D01*
X235206550Y-52064730D02*
X235237215Y-52121928D01*
X233958442Y-51829795D02*
X233929570Y-51871163D01*
X234085832Y-51790767D02*
X234009368Y-51801519D01*
X234031470Y-52564000D02*
X234004290Y-52559513D01*
X234397150Y-52064730D02*
X234306600Y-52064730D01*
X233945398Y-52381896D02*
X233945377Y-52689670D01*
X239224484Y-52120781D02*
X239193969Y-52064727D01*
X239193969Y-52064727D02*
X238953850Y-52064730D01*
X239239269Y-52202818D02*
X239224484Y-52120781D01*
X238953850Y-52064730D02*
X238953850Y-51969680D01*
X238953850Y-51969680D02*
X239448700Y-51969680D01*
X238466050Y-52550430D02*
X238396356Y-52579850D01*
X237232023Y-52257209D02*
X237503700Y-52257180D01*
X238351600Y-52262880D02*
X238351600Y-52359080D01*
X238188658Y-52472331D02*
X238283740Y-52492692D01*
X239346800Y-52643230D02*
X239238079Y-52708890D01*
X238096377Y-52545849D02*
X238030169Y-52413434D01*
X238059534Y-52015685D02*
X238117281Y-51981087D01*
X239214279Y-52284907D02*
X239239269Y-52202818D01*
X238194291Y-51968500D02*
X238271899Y-51981539D01*
X239152054Y-52312635D02*
X239214279Y-52284907D01*
X239238079Y-52708890D02*
X239027506Y-52391886D01*
X238178459Y-52230541D02*
X238289371Y-52262849D01*
X239094307Y-52280974D02*
X239152054Y-52312635D01*
X239072801Y-52253794D02*
X239094307Y-52280974D01*
X238021059Y-52189669D02*
X238010899Y-52130927D01*
X238661800Y-51969680D02*
X238976550Y-51969680D01*
X238993551Y-52312635D02*
X239015654Y-52269624D01*
X239027506Y-52391886D02*
X239000973Y-52346636D01*
X238373205Y-52118535D02*
X238357922Y-52178919D01*
X238466037Y-52433801D02*
X238466050Y-51969630D01*
X238758050Y-52064730D02*
X238661800Y-52064730D01*
X238271899Y-51981539D02*
X238327903Y-52015788D01*
X238880300Y-52064730D02*
X238880300Y-52689680D01*
X238466050Y-52689680D02*
X238466050Y-52550430D01*
X238030169Y-52413434D02*
X238058941Y-52335824D01*
X238684500Y-52064730D02*
X238588250Y-52064730D01*
X238976550Y-52064730D02*
X238880300Y-52064730D01*
X238327903Y-52015788D02*
X238361804Y-52064175D01*
X238361804Y-52064175D02*
X238373205Y-52118535D01*
X238283740Y-52492692D02*
X238386188Y-52477957D01*
X238135350Y-52141184D02*
X238178459Y-52230541D01*
X238254875Y-52155223D02*
X238262241Y-52122965D01*
X238155211Y-52084733D02*
X238135350Y-52141184D01*
X238117281Y-51981087D02*
X238194291Y-51968500D01*
X238246410Y-52081448D02*
X238201109Y-52065866D01*
X238588250Y-52689680D02*
X238466050Y-52689680D01*
X239015654Y-52269624D02*
X239072801Y-52253794D01*
X239000973Y-52346636D02*
X238993551Y-52312635D01*
X238758050Y-52689680D02*
X238758050Y-52064730D01*
X238661800Y-52064730D02*
X238661800Y-51969680D01*
X238156948Y-52417971D02*
X238188658Y-52472331D01*
X238201109Y-52065866D02*
X238155211Y-52084733D01*
X238010899Y-52130927D02*
X238023345Y-52067307D01*
X238047691Y-52235815D02*
X238021059Y-52189669D01*
X238058941Y-52335824D02*
X238129730Y-52293412D01*
X238278126Y-52594585D02*
X238096377Y-52545849D01*
X238588250Y-52064730D02*
X238588250Y-52689680D01*
X238085575Y-52270363D02*
X238047691Y-52235815D01*
X238326709Y-52216403D02*
X238237253Y-52179068D01*
X238880300Y-52689680D02*
X238758050Y-52689680D01*
X238179598Y-52375458D02*
X238156948Y-52417971D01*
X238357922Y-52178919D02*
X238326709Y-52216403D01*
X238684500Y-51969630D02*
X238684500Y-52064730D01*
X238976550Y-51969680D02*
X238976550Y-52064730D01*
X238386188Y-52477957D02*
X238466037Y-52433801D01*
X238129730Y-52293412D02*
X238085575Y-52270363D01*
X238351600Y-52359080D02*
X238247450Y-52359080D01*
X238396356Y-52579850D02*
X238278126Y-52594585D01*
X238289371Y-52262849D02*
X238351600Y-52262880D01*
X238247450Y-52359080D02*
X238179598Y-52375458D01*
X238262241Y-52122965D02*
X238246410Y-52081448D01*
X238237253Y-52179068D02*
X238254875Y-52155223D01*
X238466050Y-51969630D02*
X238684500Y-51969630D01*
X238023345Y-52067307D02*
X238059534Y-52015685D01*
X237156654Y-52282099D02*
X237232023Y-52257209D01*
X237289172Y-52464945D02*
X237250094Y-52472311D01*
X237626000Y-52064730D02*
X237626000Y-52689680D01*
X236599200Y-52689680D02*
X236599200Y-52520980D01*
X237132362Y-52347760D02*
X237156654Y-52282099D01*
X237165217Y-52437217D02*
X237132362Y-52347760D01*
X236891250Y-52689680D02*
X236891250Y-52064730D01*
X236005913Y-52421367D02*
X235937911Y-52387367D01*
X235880750Y-52284931D02*
X235906239Y-52202843D01*
X236087354Y-52433813D02*
X236005913Y-52421367D01*
X236424768Y-52568520D02*
X236265221Y-52531185D01*
X237087050Y-51969680D02*
X237722250Y-51969680D01*
X235819122Y-52312659D02*
X235880750Y-52284931D01*
X237250094Y-52472311D02*
X237165217Y-52437217D01*
X237310080Y-52451907D02*
X237289172Y-52464945D01*
X236087350Y-52064730D02*
X235982150Y-52064730D01*
X237304450Y-52355730D02*
X237310080Y-52451907D01*
X237013450Y-52689680D02*
X236891250Y-52689680D01*
X236134948Y-52298939D02*
X236166700Y-52296780D01*
X236599200Y-52520980D02*
X236534038Y-52552690D01*
X236026312Y-52638723D02*
X235917590Y-52710059D01*
X237503700Y-52355730D02*
X237304450Y-52355730D01*
X235917590Y-52710059D02*
X235693377Y-52389669D01*
X237503700Y-52689680D02*
X237503700Y-52355730D01*
X237626000Y-52689680D02*
X237503700Y-52689680D01*
X236794950Y-51969680D02*
X237109750Y-51969680D01*
X236109992Y-52330209D02*
X236136076Y-52323986D01*
X236794950Y-52064730D02*
X236794950Y-51969680D01*
X235847410Y-52410017D02*
X235836000Y-52410030D01*
X237722250Y-52064730D02*
X237626000Y-52064730D01*
X237722250Y-51969680D02*
X237722250Y-52064730D01*
X237503700Y-52064730D02*
X237087050Y-52064730D01*
X237503700Y-52257180D02*
X237503700Y-52064730D01*
X235760182Y-52284384D02*
X235819122Y-52312659D01*
X237013450Y-52064730D02*
X237013450Y-52689680D01*
X237109750Y-52064730D02*
X237013450Y-52064730D01*
X236163319Y-52424753D02*
X236087354Y-52433813D01*
X235739870Y-52257203D02*
X235760182Y-52284384D01*
X237109750Y-51969680D02*
X237109750Y-52064730D01*
X236891250Y-52064730D02*
X236794950Y-52064730D01*
X236265221Y-52531185D02*
X236163319Y-52424753D01*
X236023971Y-52270226D02*
X236004705Y-52318314D01*
X235693377Y-52389669D02*
X235669084Y-52347754D01*
X236135512Y-52312034D02*
X236134948Y-52298939D01*
X236039801Y-52327923D02*
X236082861Y-52331903D01*
X236136076Y-52323986D02*
X236135512Y-52312034D01*
X236030786Y-52213028D02*
X236023971Y-52270226D01*
X236014309Y-52123024D02*
X236030786Y-52213028D01*
X235982150Y-52064730D02*
X236014309Y-52123024D01*
X235906239Y-52202843D02*
X235893200Y-52122496D01*
X236534038Y-52552690D02*
X236424768Y-52568520D01*
X235937911Y-52387367D02*
X235847410Y-52410017D01*
X236087350Y-51969680D02*
X236087350Y-52064730D01*
X235864426Y-52064750D02*
X235623200Y-52064730D01*
X235669084Y-52347754D02*
X235662861Y-52316094D01*
X235684913Y-52272485D02*
X235739870Y-52257203D01*
X235893200Y-52122496D02*
X235864426Y-52064750D01*
X235836000Y-52410030D02*
X236026312Y-52638723D01*
X237087050Y-52064730D02*
X237087050Y-51969680D01*
X236082861Y-52331903D02*
X236109992Y-52330209D01*
X236004705Y-52318314D02*
X236039801Y-52327923D01*
X235662861Y-52316094D02*
X235684913Y-52272485D01*
X235623200Y-51969680D02*
X236087350Y-51969680D01*
X235623200Y-52064730D02*
X235623200Y-51969680D01*
X235382099Y-52427019D02*
X235315293Y-52431506D01*
X235128501Y-52202868D02*
X235113716Y-52120778D01*
X236284930Y-52084116D02*
X236268501Y-52128073D01*
X236178001Y-52193186D02*
X236156496Y-52117917D01*
X236376718Y-52351341D02*
X236270834Y-52379467D01*
X234845450Y-52064730D02*
X234845450Y-51969630D01*
X235315293Y-52431506D02*
X235233801Y-52419060D01*
X236721400Y-52689680D02*
X236599200Y-52689680D01*
X235162465Y-52387399D02*
X235069575Y-52413435D01*
X236721400Y-52064730D02*
X236721400Y-52689680D01*
X236270834Y-52379467D02*
X236316633Y-52439454D01*
X236377771Y-52084962D02*
X236330827Y-52066992D01*
X236817600Y-52064730D02*
X236721400Y-52064730D01*
X236599200Y-51969680D02*
X236817600Y-51969680D01*
X235427400Y-52689680D02*
X235427400Y-52413430D01*
X236411717Y-51982317D02*
X236470609Y-52020996D01*
X236529445Y-52447967D02*
X236599188Y-52399828D01*
X236316633Y-52439454D02*
X236424756Y-52466635D01*
X235434205Y-51757350D02*
X235488516Y-51734153D01*
X236206273Y-52011038D02*
X236262275Y-51979974D01*
X236262275Y-51979974D02*
X236334209Y-51968474D01*
X235069575Y-52413435D02*
X235058328Y-52412306D01*
X236520983Y-52149679D02*
X236503958Y-52231967D01*
X235103014Y-52286599D02*
X235128501Y-52202868D01*
X234845450Y-51969630D02*
X235645900Y-51969630D01*
X234982444Y-52284356D02*
X235008529Y-52308152D01*
X236507944Y-52078991D02*
X236520983Y-52149679D01*
X235058328Y-52412306D02*
X235236021Y-52643227D01*
X235412600Y-51807730D02*
X235434205Y-51757350D01*
X236156496Y-52117917D02*
X236169535Y-52057931D01*
X236396438Y-52141065D02*
X236377771Y-52084962D01*
X235542280Y-51860397D02*
X235488516Y-51882450D01*
X236338195Y-52246701D02*
X236396438Y-52141065D01*
X235233801Y-52419060D02*
X235162465Y-52387399D01*
X235434205Y-51860397D02*
X235412600Y-51807730D01*
X235041285Y-52316068D02*
X235103014Y-52286599D01*
X236817600Y-51969680D02*
X236817600Y-52064730D01*
X236599188Y-52399828D02*
X236599200Y-51969680D01*
X236424756Y-52466635D02*
X236529445Y-52447967D01*
X236334209Y-51968474D02*
X236411717Y-51982317D01*
X236222107Y-52235649D02*
X236178001Y-52193186D01*
X236166700Y-52296780D02*
X236338195Y-52246701D01*
X235427400Y-52413430D02*
X235382099Y-52427019D01*
X235549600Y-52689680D02*
X235427400Y-52689680D01*
X235645900Y-51969630D02*
X235645900Y-52064730D01*
X235083200Y-52064726D02*
X234845450Y-52064730D01*
X235008529Y-52308152D02*
X235041285Y-52316068D01*
X235549600Y-52064730D02*
X235549600Y-52689680D01*
X235542776Y-51757350D02*
X235563187Y-51807730D01*
X236455372Y-52300466D02*
X236376718Y-52351341D01*
X236300312Y-52188109D02*
X236222107Y-52235649D01*
X235488516Y-51734153D02*
X235542776Y-51757350D01*
X234962034Y-52257177D02*
X234982444Y-52284356D01*
X236503958Y-52231967D02*
X236455372Y-52300466D01*
X236470609Y-52020996D02*
X236507944Y-52078991D01*
X235645900Y-52064730D02*
X235549600Y-52064730D01*
X236268501Y-52128073D02*
X236278111Y-52163815D01*
X235113716Y-52120778D02*
X235083200Y-52064726D01*
X236330827Y-52066992D02*
X236284930Y-52084116D01*
X236169535Y-52057931D02*
X236206273Y-52011038D01*
X236278111Y-52163815D02*
X236300312Y-52188109D01*
X235563187Y-51807730D02*
X235542280Y-51860397D01*
X234904288Y-52272459D02*
X234962034Y-52257177D01*
X235488516Y-51882450D02*
X235434205Y-51860397D01*
X229171900Y-54009580D02*
X229252495Y-54075638D01*
X229327266Y-54018042D02*
X229260111Y-53963482D01*
X229260111Y-53963482D02*
X229171900Y-53939487D01*
X229252495Y-54075638D02*
X229327266Y-54018042D01*
X228484600Y-54149480D02*
X228484600Y-53751530D01*
X228627500Y-54149480D02*
X228484600Y-54149480D01*
X228795150Y-53848480D02*
X228787530Y-53795713D01*
X228617800Y-53663380D02*
X228621737Y-53736159D01*
X228356100Y-54149480D02*
X228207500Y-54149480D01*
X227596134Y-53754494D02*
X227522309Y-53791829D01*
X226968342Y-54160971D02*
X226847424Y-54122690D01*
X227656494Y-53651880D02*
X227804044Y-53742879D01*
X227817550Y-54149480D02*
X227672800Y-54149480D01*
X227362150Y-53751530D02*
X227359257Y-53663368D01*
X226881010Y-53690232D02*
X227027664Y-53650955D01*
X226975905Y-53761131D02*
X226965407Y-53804341D01*
X226847424Y-54122690D02*
X226805260Y-54016258D01*
X228627485Y-53865705D02*
X228627500Y-54149480D01*
X228644709Y-53791829D02*
X228627485Y-53865705D01*
X228356100Y-53454380D02*
X228356100Y-54149480D01*
X228718534Y-53754494D02*
X228644709Y-53791829D01*
X228787530Y-53795713D02*
X228718534Y-53754494D01*
X226707450Y-53580830D02*
X226556000Y-53580830D01*
X227817534Y-53887692D02*
X227817550Y-54149480D01*
X226560800Y-54149480D02*
X226560800Y-53664230D01*
X227359257Y-53663368D02*
X227495300Y-53663380D01*
X227092890Y-53774621D02*
X227029519Y-53734249D01*
X227234844Y-54026751D02*
X227246289Y-54149510D01*
X227029519Y-53734249D02*
X226975905Y-53761131D01*
X227012395Y-54068927D02*
X227072829Y-54041149D01*
X227505000Y-54149480D02*
X227362150Y-54149480D01*
X228939950Y-54149480D02*
X228795150Y-54149480D01*
X228926644Y-53742879D02*
X228939979Y-53887692D01*
X228779044Y-53651880D02*
X228926644Y-53742879D01*
X227672800Y-53848480D02*
X227665180Y-53795713D01*
X227505036Y-53865705D02*
X227505000Y-54149480D01*
X227665180Y-53795713D02*
X227596134Y-53754494D01*
X228207500Y-54149480D02*
X228207500Y-53454380D01*
X227233857Y-53832108D02*
X227234844Y-54026751D01*
X227099664Y-53838988D02*
X227092890Y-53774621D01*
X228621737Y-53736159D02*
X228779044Y-53651880D01*
X227804044Y-53742879D02*
X227817534Y-53887692D01*
X228484600Y-53751530D02*
X228481665Y-53663368D01*
X228207500Y-53454380D02*
X228356100Y-53454380D01*
X227362150Y-54149480D02*
X227362150Y-53751530D01*
X227499237Y-53736159D02*
X227656494Y-53651880D01*
X227495300Y-53663380D02*
X227499237Y-53736159D01*
X227672800Y-54149480D02*
X227672800Y-53848480D01*
X227072829Y-54041149D02*
X227099661Y-53921326D01*
X226707450Y-53457229D02*
X226707450Y-53580830D01*
X227027664Y-53650955D02*
X227200305Y-53713131D01*
X226826400Y-53804330D02*
X226881010Y-53690232D01*
X226907808Y-53865721D02*
X227099664Y-53838988D01*
X227113055Y-54083313D02*
X226968342Y-54160971D01*
X227117881Y-54149521D02*
X227113055Y-54083313D01*
X227522309Y-53791829D02*
X227505036Y-53865705D01*
X227246289Y-54149510D02*
X227117881Y-54149521D01*
X227200305Y-53713131D02*
X227233857Y-53832108D01*
X226823116Y-53942034D02*
X226907808Y-53865721D01*
X227099661Y-53921326D02*
X226987343Y-53936200D01*
X226556000Y-53580830D02*
X226556016Y-53457241D01*
X226943350Y-53999980D02*
X227012395Y-54068927D01*
X226965407Y-53804341D02*
X226826400Y-53804330D01*
X226805260Y-54016258D02*
X226823116Y-53942034D01*
X228795150Y-54149480D02*
X228795150Y-53848480D01*
X228939979Y-53887692D02*
X228939950Y-54149480D01*
X228481665Y-53663368D02*
X228617800Y-53663380D01*
X226556016Y-53457241D02*
X226707450Y-53457229D01*
X226987343Y-53936200D02*
X226943349Y-53999980D01*
X240609103Y-52590058D02*
X240701944Y-52569149D01*
X240450004Y-52661393D02*
X240384891Y-52630827D01*
X240797027Y-52390238D02*
X240855867Y-52515387D01*
X225838194Y-53887692D02*
X225838200Y-54149480D01*
X225516050Y-53663380D02*
X225519888Y-53736159D01*
X225382800Y-53751530D02*
X225379907Y-53663368D01*
X225105700Y-53454380D02*
X225254350Y-53454380D01*
X225616741Y-53754494D02*
X225542867Y-53791829D01*
X225685737Y-53795713D02*
X225616741Y-53754494D01*
X240855867Y-52515387D02*
X240794189Y-52641581D01*
X225693400Y-54149480D02*
X225693400Y-53848480D01*
X240701944Y-52569149D02*
X240731315Y-52513096D01*
X240333916Y-52595733D02*
X240389420Y-52510807D01*
X240794189Y-52641581D02*
X240613535Y-52690815D01*
X240491919Y-52569149D02*
X240609103Y-52590058D01*
X225838200Y-54149480D02*
X225693400Y-54149480D01*
X225519888Y-53736159D02*
X225677146Y-53651880D01*
X225254350Y-54149480D02*
X225105700Y-54149480D01*
X240527015Y-52682898D02*
X240450004Y-52661393D01*
X240495803Y-52331941D02*
X240520792Y-52359121D01*
X226702700Y-54149480D02*
X226560800Y-54149480D01*
X240556983Y-52448585D02*
X240487937Y-52466656D01*
X225105700Y-54149480D02*
X225105700Y-53454380D01*
X226295451Y-53898274D02*
X226266834Y-53789303D01*
X240731315Y-52513096D02*
X240702990Y-52461026D01*
X225693400Y-53848480D02*
X225685737Y-53795713D01*
X226146841Y-54159138D02*
X225995227Y-54095611D01*
X225525642Y-53865705D02*
X225525650Y-54149480D01*
X225824746Y-53742879D02*
X225838194Y-53887692D01*
X240631755Y-52343246D02*
X240797027Y-52390238D01*
X226272453Y-54012421D02*
X226295451Y-53898274D01*
X225525650Y-54149480D02*
X225382800Y-54149480D01*
X226106838Y-54021014D02*
X226182300Y-54067030D01*
X240389420Y-52510807D02*
X240491919Y-52569149D01*
X226702700Y-53664230D02*
X226702700Y-54149480D01*
X226560800Y-53664230D02*
X226702700Y-53664230D01*
X226154557Y-53658590D02*
X226290658Y-53724699D01*
X226289712Y-54079487D02*
X226240877Y-54134147D01*
X226290624Y-53457265D02*
X226433500Y-53457229D01*
X226190016Y-53751569D02*
X226101698Y-53814747D01*
X225677146Y-53651880D02*
X225824746Y-53742879D01*
X226266834Y-53789303D02*
X226190016Y-53751569D01*
X225542867Y-53791829D02*
X225525642Y-53865705D01*
X240520792Y-52359121D02*
X240578439Y-52346675D01*
X225379907Y-53663368D02*
X225516050Y-53663380D01*
X226290658Y-53724699D02*
X226290624Y-53457265D01*
X226000130Y-53728439D02*
X226154557Y-53658590D01*
X226293550Y-54149480D02*
X226289712Y-54079487D01*
X226437338Y-54149484D02*
X226293550Y-54149480D01*
X225940648Y-53918397D02*
X226000130Y-53728439D01*
X225995227Y-54095611D02*
X225940648Y-53918397D01*
X226240877Y-54134147D02*
X226146841Y-54159138D01*
X226182300Y-54067030D02*
X226272453Y-54012421D01*
X240702990Y-52461026D02*
X240623789Y-52442856D01*
X240384891Y-52630827D02*
X240333916Y-52595733D01*
X226433500Y-54070880D02*
X226437338Y-54149484D01*
X225254350Y-53454380D02*
X225254350Y-54149480D01*
X240578439Y-52346675D02*
X240631755Y-52343246D01*
X240623789Y-52442856D02*
X240556983Y-52448585D01*
X240613535Y-52690815D02*
X240527015Y-52682898D01*
X226433500Y-53457229D02*
X226433500Y-54070880D01*
X226084580Y-53914552D02*
X226106838Y-54021014D01*
X226101698Y-53814747D02*
X226084580Y-53914552D01*
X225382800Y-54149480D02*
X225382800Y-53751530D01*
X239603219Y-52454755D02*
X239695462Y-52482483D01*
X239812050Y-52312680D02*
X239763413Y-52271362D01*
X239347815Y-52297405D02*
X239306498Y-52359083D01*
X239763907Y-52567401D02*
X239678433Y-52582136D01*
X239933200Y-52064780D02*
X239933200Y-52689680D01*
X240029400Y-51969630D02*
X240029400Y-52064780D01*
X239811004Y-52203959D02*
X239811000Y-52064780D01*
X240225350Y-52689680D02*
X240103050Y-52689680D01*
X240225350Y-52064730D02*
X240225350Y-52689680D01*
X239306498Y-52359083D02*
X239247707Y-52397016D01*
X239587931Y-52567948D02*
X239512564Y-52526082D01*
X239695462Y-52482483D02*
X239778098Y-52453063D01*
X239692077Y-52253790D02*
X239602024Y-52282115D01*
X239247707Y-52397016D02*
X239180302Y-52410012D01*
X239568671Y-52365896D02*
X239603219Y-52454755D01*
X239678433Y-52582136D02*
X239587931Y-52567948D01*
X239933200Y-52689680D02*
X239811000Y-52689680D01*
X239392000Y-52064780D02*
X239392000Y-51969630D01*
X239169050Y-52410030D02*
X239346800Y-52643230D01*
X239448700Y-52064730D02*
X239317300Y-52064730D01*
X240532099Y-52146241D02*
X240681550Y-52146230D01*
X239753209Y-52170058D02*
X239811004Y-52203959D01*
X239392000Y-51969630D02*
X240029400Y-51969630D01*
X240485700Y-52297941D02*
X240495803Y-52331941D01*
X239778098Y-52453063D02*
X239812050Y-52379486D01*
X239512564Y-52526082D02*
X239461638Y-52456489D01*
X240503221Y-52257768D02*
X240485700Y-52297941D01*
X240803850Y-52064730D02*
X240803850Y-52243630D01*
X239811000Y-52537930D02*
X239763907Y-52567401D01*
X239363794Y-52213026D02*
X239347815Y-52297405D01*
X240361153Y-52292298D02*
X240403067Y-52187608D01*
X240553550Y-52243630D02*
X240503221Y-52257768D01*
X240803850Y-52243630D02*
X240553550Y-52243630D01*
X239602024Y-52282115D02*
X239568671Y-52365896D01*
X240912450Y-52064730D02*
X240803850Y-52064730D01*
X240912450Y-51969680D02*
X240912450Y-52064730D01*
X240298850Y-51969680D02*
X240912450Y-51969680D01*
X240681550Y-52064730D02*
X240298850Y-52064730D01*
X240403571Y-52397037D02*
X240373006Y-52348350D01*
X240103050Y-52064730D02*
X240006750Y-52064730D01*
X239811000Y-52689680D02*
X239811000Y-52537930D01*
X240321500Y-51969680D02*
X240321500Y-52064730D01*
X240029400Y-52064780D02*
X239933200Y-52064780D01*
X239317300Y-52064730D02*
X239347815Y-52121878D01*
X239448700Y-51969680D02*
X239448700Y-52064730D01*
X240006750Y-52064730D02*
X240006750Y-51969680D01*
X240298850Y-52064730D02*
X240298850Y-51969680D01*
X240681550Y-52146230D02*
X240681550Y-52064730D01*
X240006750Y-51969680D02*
X240321500Y-51969680D01*
X240403067Y-52187608D02*
X240532099Y-52146241D01*
X240373006Y-52348350D02*
X240361153Y-52292298D01*
X240444392Y-52436613D02*
X240403571Y-52397037D01*
X240487950Y-52466630D02*
X240444392Y-52436613D01*
X239812050Y-52379486D02*
X239812050Y-52312680D01*
X239763413Y-52271362D02*
X239692077Y-52253790D01*
X240321500Y-52064730D02*
X240225350Y-52064730D01*
X239811000Y-52064780D02*
X239392000Y-52064780D01*
X239347815Y-52121878D02*
X239363794Y-52213026D01*
X239665993Y-52155323D02*
X239753209Y-52170058D01*
X239180302Y-52410012D02*
X239169050Y-52410030D01*
X240103050Y-52689680D02*
X240103050Y-52064730D01*
X239504698Y-52208481D02*
X239665988Y-52155315D01*
X239442969Y-52360212D02*
X239504698Y-52208481D01*
X239461638Y-52456489D02*
X239442969Y-52360212D01*
X243123530Y-54149484D02*
X242979600Y-54149480D01*
X242097104Y-54016258D02*
X242114956Y-53942034D01*
X242257304Y-53804341D02*
X242118250Y-53804330D01*
X242840564Y-53658590D02*
X242976814Y-53724699D01*
X242979600Y-54149480D02*
X242975719Y-54079487D01*
X242770779Y-53914552D02*
X242793019Y-54021014D01*
X242981551Y-53898274D02*
X242952871Y-53789303D01*
X242538187Y-54149510D02*
X242409683Y-54149521D01*
X242626805Y-53918397D02*
X242686250Y-53728439D01*
X242686250Y-53728439D02*
X242840564Y-53658590D01*
X242952871Y-53789303D02*
X242876066Y-53751569D01*
X242321467Y-53734249D02*
X242267803Y-53761131D01*
X242876066Y-53751569D02*
X242787842Y-53814747D01*
X242681334Y-54095611D02*
X242626805Y-53918397D01*
X242492202Y-53713131D02*
X242525756Y-53832108D01*
X242172909Y-53690232D02*
X242319612Y-53650955D01*
X242391506Y-53838988D02*
X242384888Y-53774621D01*
X242958553Y-54012421D02*
X242981551Y-53898274D01*
X242832898Y-54159138D02*
X242681334Y-54095611D01*
X243119650Y-54070880D02*
X243123530Y-54149484D01*
X242199751Y-53865721D02*
X242391506Y-53838988D01*
X242114956Y-53942034D02*
X242199751Y-53865721D01*
X243119650Y-53457229D02*
X243119650Y-54070880D01*
X242787842Y-53814747D02*
X242770779Y-53914552D01*
X242976814Y-53724699D02*
X242976823Y-53457265D01*
X242526743Y-54026751D02*
X242538187Y-54149510D01*
X242926934Y-54134147D02*
X242832898Y-54159138D01*
X242793019Y-54021014D02*
X242868500Y-54067030D01*
X242525756Y-53832108D02*
X242526743Y-54026751D01*
X242975719Y-54079487D02*
X242926934Y-54134147D01*
X242868500Y-54067030D02*
X242958553Y-54012421D01*
X242319612Y-53650955D02*
X242492202Y-53713131D01*
X242118250Y-53804330D02*
X242172909Y-53690232D01*
X242267803Y-53761131D02*
X242257304Y-53804341D01*
X242139368Y-54122690D02*
X242097104Y-54016258D01*
X242384888Y-53774621D02*
X242321467Y-53734249D01*
X242976823Y-53457265D02*
X243119650Y-53457229D01*
X241562456Y-53665229D02*
X241718750Y-53665229D01*
X241017200Y-54149530D02*
X240875300Y-54149530D01*
X240626798Y-54083313D02*
X240482234Y-54160971D01*
X241039455Y-53822632D02*
X241017172Y-53910698D01*
X240747855Y-53832108D02*
X240748701Y-54026751D01*
X240631681Y-54149521D02*
X240626798Y-54083313D01*
X240613411Y-53921326D02*
X240501243Y-53936200D01*
X240340150Y-53804330D02*
X240394909Y-53690232D01*
X240479204Y-53804341D02*
X240340150Y-53804330D01*
X240606887Y-53774621D02*
X240543466Y-53734249D01*
X240073350Y-53859980D02*
X240063400Y-53796783D01*
X239760850Y-54149480D02*
X239760800Y-53457229D01*
X240489703Y-53761131D02*
X240479204Y-53804341D01*
X240543466Y-53734249D02*
X240489703Y-53761131D01*
X241001900Y-53663330D02*
X241004736Y-53756320D01*
X240760103Y-54149510D02*
X240631681Y-54149521D01*
X242056300Y-53665229D02*
X241890329Y-54149547D01*
X240875300Y-54149530D02*
X240875300Y-53784230D01*
X241718750Y-53665229D02*
X241820352Y-54030720D01*
X241169610Y-53662384D02*
X241169600Y-53789930D01*
X240748701Y-54026751D02*
X240760103Y-54149510D01*
X241636339Y-53790859D02*
X241534636Y-54149530D01*
X241169600Y-53789930D02*
X241039455Y-53822632D01*
X240457250Y-53999980D02*
X240526295Y-54068927D01*
X239902651Y-53853260D02*
X239903639Y-54149506D01*
X241915234Y-53665229D02*
X242056300Y-53665229D01*
X242404998Y-54083313D02*
X242260235Y-54160971D01*
X242391512Y-53921326D02*
X242279306Y-53936200D01*
X242235350Y-53999980D02*
X242304297Y-54068927D01*
X241459957Y-54030720D02*
X241562456Y-53665229D01*
X240714104Y-53713131D02*
X240747855Y-53832108D01*
X242364780Y-54041149D02*
X242391512Y-53921326D01*
X241736100Y-54149530D02*
X241636339Y-53790859D01*
X241370700Y-53665229D02*
X241459957Y-54030720D01*
X239933061Y-53775464D02*
X239902651Y-53853260D01*
X241017172Y-53910698D02*
X241017200Y-54149530D01*
X240501243Y-53936200D02*
X240457249Y-53999980D01*
X241004736Y-53756320D02*
X241050902Y-53691711D01*
X240875300Y-53784230D02*
X240868583Y-53663361D01*
X240361267Y-54122690D02*
X240319103Y-54016258D01*
X240586679Y-54041149D02*
X240613411Y-53921326D01*
X240526295Y-54068927D02*
X240586679Y-54041149D01*
X240394909Y-53690232D02*
X240541612Y-53650955D01*
X240421651Y-53865721D02*
X240613406Y-53838988D01*
X240319103Y-54016258D02*
X240336943Y-53942034D01*
X240063400Y-53796783D02*
X239993749Y-53754493D01*
X241378350Y-54149530D02*
X241220195Y-53665213D01*
X240336943Y-53942034D02*
X240421651Y-53865721D01*
X240073350Y-54149480D02*
X240073350Y-53859980D01*
X242260235Y-54160971D02*
X242139368Y-54122690D01*
X241220195Y-53665213D02*
X241370700Y-53665229D01*
X239903639Y-54149506D02*
X239760850Y-54149480D01*
X241534636Y-54149530D02*
X241378350Y-54149530D01*
X240868583Y-53663361D02*
X241001900Y-53663330D01*
X240613406Y-53838988D02*
X240606887Y-53774621D01*
X239993749Y-53754493D02*
X239933061Y-53775464D01*
X242409683Y-54149521D02*
X242404998Y-54083313D01*
X242279306Y-53936200D02*
X242235350Y-53999980D01*
X241050902Y-53691711D02*
X241169610Y-53662384D01*
X242304297Y-54068927D02*
X242364780Y-54041149D01*
X241890329Y-54149547D02*
X241736100Y-54149530D01*
X240482234Y-54160971D02*
X240361267Y-54122690D01*
X241820352Y-54030720D02*
X241915234Y-53665229D01*
X240541612Y-53650955D02*
X240714104Y-53713131D01*
X240214323Y-53855185D02*
X240214350Y-54149480D01*
X240182664Y-53723763D02*
X240214323Y-53855185D01*
X239280713Y-54149521D02*
X239064850Y-54149480D01*
X239405265Y-54141901D02*
X239280713Y-54149521D01*
X237994010Y-53904987D02*
X237977920Y-53810640D01*
X237072616Y-53911618D02*
X237126218Y-53738853D01*
X237319927Y-54166744D02*
X237144506Y-54102857D01*
X237708736Y-53736217D02*
X237864470Y-53662379D01*
X238725800Y-53665229D02*
X238542656Y-54140885D01*
X237991958Y-54073669D02*
X237861681Y-54139977D01*
X237811227Y-53981538D02*
X237894250Y-54042980D01*
X239294203Y-53459208D02*
X239532804Y-53521483D01*
X239468953Y-53659884D02*
X239370716Y-53579992D01*
X237985340Y-54188813D02*
X237991958Y-54073669D01*
X237897088Y-53757288D02*
X237828103Y-53790884D01*
X239274092Y-54037278D02*
X239434984Y-53989389D01*
X237799367Y-53902100D02*
X237811227Y-53981538D01*
X237126218Y-53738853D02*
X237322964Y-53653753D01*
X237977920Y-53810640D02*
X237897088Y-53757288D01*
X237574108Y-53907884D02*
X237512840Y-54088371D01*
X240041684Y-53658600D02*
X240182664Y-53723763D01*
X238131109Y-53787007D02*
X238131100Y-54144730D01*
X237512840Y-54088371D02*
X237319927Y-54166744D01*
X239370716Y-53579992D02*
X239215549Y-53570340D01*
X237676551Y-54184903D02*
X237812650Y-54184930D01*
X237828103Y-53790884D02*
X237799367Y-53902100D01*
X240214350Y-54149480D02*
X240073350Y-54149480D01*
X239901750Y-53731479D02*
X240041684Y-53658600D01*
X238476481Y-54000951D02*
X238584805Y-53665229D01*
X237981540Y-53981899D02*
X237994010Y-53904987D01*
X237760332Y-54317671D02*
X237676551Y-54184903D01*
X239215549Y-53570340D02*
X239215550Y-54035430D01*
X237861681Y-54139977D02*
X237707267Y-54064938D01*
X238137727Y-53667184D02*
X238131109Y-53787007D01*
X239901750Y-53457229D02*
X239901750Y-53731479D01*
X238402730Y-54151432D02*
X238216649Y-53665223D01*
X238484114Y-54333687D02*
X238341300Y-54333680D01*
X239760800Y-53457229D02*
X239901750Y-53457229D01*
X238004507Y-53667208D02*
X238137727Y-53667184D01*
X237707267Y-54064938D02*
X237657281Y-53902124D01*
X237894250Y-54042980D02*
X237981540Y-53981899D01*
X237897079Y-54252084D02*
X237985340Y-54188813D01*
X239497409Y-53793801D02*
X239468953Y-53659884D01*
X237812650Y-54184930D02*
X237897079Y-54252084D01*
X237144506Y-54102857D02*
X237072616Y-53911618D01*
X239577332Y-54038687D02*
X239405265Y-54141901D01*
X237999723Y-53731476D02*
X238004507Y-53667208D01*
X237864470Y-53662379D02*
X237999723Y-53731476D01*
X238045122Y-54309399D02*
X237889364Y-54340369D01*
X239650833Y-53793785D02*
X239577332Y-54038687D01*
X239064864Y-53458220D02*
X239294203Y-53459208D01*
X239215550Y-54035430D02*
X239274092Y-54037278D01*
X237889364Y-54340369D02*
X237760332Y-54317671D01*
X238131100Y-54144730D02*
X238045122Y-54309399D01*
X239532804Y-53521483D02*
X239624562Y-53644678D01*
X238216649Y-53665223D02*
X238370100Y-53665229D01*
X239064850Y-54149480D02*
X239064864Y-53458220D01*
X239434984Y-53989389D02*
X239497409Y-53793801D01*
X238341300Y-54333680D02*
X238402730Y-54151432D01*
X238542656Y-54140885D02*
X238484114Y-54333687D01*
X238584805Y-53665229D02*
X238725800Y-53665229D01*
X237657281Y-53902124D02*
X237708736Y-53736217D01*
X238370100Y-53665229D02*
X238476481Y-54000951D01*
X239624562Y-53644678D02*
X239650833Y-53793785D01*
X235950737Y-53651880D02*
X236098337Y-53742879D01*
X235074650Y-54149480D02*
X235074650Y-53457229D01*
X235387200Y-53859980D02*
X235377262Y-53796783D01*
X237322964Y-53653753D02*
X237514302Y-53730098D01*
X237411373Y-53801341D02*
X237322957Y-53748735D01*
X237400428Y-54033289D02*
X237429338Y-53902110D01*
X236466957Y-53748735D02*
X236375821Y-53814178D01*
X235793430Y-53736159D02*
X235950737Y-53651880D01*
X236288555Y-54102857D02*
X236216703Y-53911618D01*
X235215500Y-53457229D02*
X235215500Y-53731479D01*
X236825900Y-54149480D02*
X236825900Y-53456280D01*
X235528173Y-53855185D02*
X235528200Y-54149480D01*
X236825900Y-53456280D02*
X236967900Y-53456280D01*
X236216703Y-53911618D02*
X236270218Y-53738853D01*
X236362417Y-53912664D02*
X236389399Y-54030986D01*
X235653513Y-53663368D02*
X235789550Y-53663380D01*
X235656350Y-54149480D02*
X235656350Y-53751530D01*
X235789550Y-53663380D02*
X235793430Y-53736159D01*
X235216601Y-53853260D02*
X235217589Y-54149506D01*
X236466951Y-53653753D02*
X236658327Y-53730098D01*
X237245348Y-54030986D02*
X237324700Y-54068030D01*
X237322957Y-53748735D02*
X237231820Y-53814178D01*
X235799200Y-54149480D02*
X235656350Y-54149480D01*
X235959339Y-53795713D02*
X235890393Y-53754494D01*
X235247048Y-53775464D02*
X235216601Y-53853260D01*
X236111750Y-54149480D02*
X235967100Y-54149480D01*
X237514302Y-53730098D02*
X237574108Y-53907884D01*
X235217589Y-54149506D02*
X235074650Y-54149480D01*
X237218416Y-53912664D02*
X237245348Y-54030986D01*
X236656877Y-54088371D02*
X236464014Y-54166744D01*
X236555423Y-53801341D02*
X236466957Y-53748735D01*
X235528200Y-54149480D02*
X235387200Y-54149480D01*
X237231820Y-53814178D02*
X237218416Y-53912664D01*
X237324700Y-54068030D02*
X237400428Y-54033289D01*
X235967100Y-53848480D02*
X235959339Y-53795713D01*
X235387200Y-54149480D02*
X235387200Y-53859980D01*
X236658327Y-53730098D02*
X236718096Y-53907884D01*
X235074650Y-53457229D02*
X235215500Y-53457229D01*
X236389399Y-54030986D02*
X236468799Y-54068030D01*
X236375821Y-53814178D02*
X236362417Y-53912664D01*
X236544490Y-54033289D02*
X236573438Y-53902110D01*
X234974664Y-53836934D02*
X234835650Y-53836930D01*
X236468800Y-54068030D02*
X236544490Y-54033289D01*
X235799194Y-53865705D02*
X235799200Y-54149480D01*
X235967100Y-54149480D02*
X235967100Y-53848480D01*
X235307699Y-53754493D02*
X235247048Y-53775464D01*
X235355633Y-53658600D02*
X235496711Y-53723763D01*
X235215500Y-53731479D02*
X235355633Y-53658600D01*
X234909395Y-53697068D02*
X234974664Y-53836934D01*
X234777183Y-53655732D02*
X234909395Y-53697068D01*
X237429338Y-53902110D02*
X237411373Y-53801341D01*
X236111729Y-53887692D02*
X236111750Y-54149480D01*
X235656350Y-53751530D02*
X235653513Y-53663368D01*
X235377262Y-53796783D02*
X235307699Y-53754493D01*
X236967900Y-54149480D02*
X236825900Y-54149480D01*
X236573438Y-53902110D02*
X236555423Y-53801341D01*
X236718096Y-53907884D02*
X236656877Y-54088371D01*
X235816517Y-53791829D02*
X235799194Y-53865705D01*
X236967900Y-53456280D02*
X236967900Y-54149480D01*
X236270218Y-53738853D02*
X236466951Y-53653753D01*
X236464014Y-54166744D02*
X236288555Y-54102857D01*
X235890393Y-53754494D02*
X235816517Y-53791829D01*
X236098337Y-53742879D02*
X236111729Y-53887692D01*
X235496711Y-53723763D02*
X235528173Y-53855185D01*
X234247510Y-54072818D02*
X234331938Y-54005712D01*
X234317822Y-53791755D02*
X234244721Y-53745857D01*
X234461400Y-54005730D02*
X234415303Y-54111116D01*
X234153623Y-53854230D02*
X234329100Y-53854230D01*
X233165130Y-53545437D02*
X233092251Y-53608708D01*
X233478500Y-53571230D02*
X233478500Y-53456280D01*
X234244721Y-53745857D02*
X234153623Y-53854230D01*
X232983048Y-53489934D02*
X233118265Y-53444709D01*
X232879450Y-53765980D02*
X232879450Y-53665229D01*
X233092250Y-53765980D02*
X233092250Y-54149480D01*
X232951400Y-53599080D02*
X232983048Y-53489934D01*
X232951400Y-53665229D02*
X232951400Y-53599080D01*
X232879450Y-53665229D02*
X232951400Y-53665229D01*
X233092250Y-53665229D02*
X233182500Y-53665229D01*
X234040350Y-53456280D02*
X234040350Y-53571230D01*
X234161046Y-54019975D02*
X234247510Y-54072818D01*
X233834250Y-53571230D02*
X233834250Y-54149480D01*
X233092251Y-53608708D02*
X233092250Y-53665229D01*
X234032377Y-53795574D02*
X234113284Y-53689273D01*
X234639906Y-53698642D02*
X234777183Y-53655732D01*
X234550830Y-53906875D02*
X234639906Y-53698642D01*
X234612209Y-54097735D02*
X234550830Y-53906875D01*
X234777183Y-54161953D02*
X234612209Y-54097735D01*
X234915274Y-54116900D02*
X234777183Y-54161953D01*
X234329100Y-53854230D02*
X234317822Y-53791755D01*
X233684650Y-53571230D02*
X233478500Y-53571230D01*
X233194950Y-53548330D02*
X233165130Y-53545437D01*
X234977500Y-53974030D02*
X234915274Y-54116900D01*
X234837491Y-53974026D02*
X234977500Y-53974030D01*
X234415303Y-54111116D02*
X234245651Y-54167817D01*
X234772378Y-54067017D02*
X234837491Y-53974026D01*
X234734047Y-54050788D02*
X234772378Y-54067017D01*
X234698553Y-53902143D02*
X234734047Y-54050788D01*
X234710749Y-53805207D02*
X234698553Y-53902143D01*
X234473746Y-53943405D02*
X234148694Y-53943388D01*
X233182500Y-53665229D02*
X233182500Y-53765980D01*
X233478500Y-53456280D02*
X234040350Y-53456280D01*
X233834250Y-54149480D02*
X233684650Y-54149480D01*
X233092250Y-54149480D02*
X232951400Y-54149480D01*
X234040350Y-53571230D02*
X233834250Y-53571230D01*
X233118265Y-53444709D02*
X233194928Y-53449492D01*
X234773423Y-53747771D02*
X234710749Y-53805207D01*
X234835650Y-53836930D02*
X234773423Y-53747771D01*
X234445172Y-53766036D02*
X234473746Y-53943405D01*
X234113284Y-53689273D02*
X234249533Y-53649001D01*
X234249533Y-53649001D02*
X234356686Y-53673711D01*
X233182500Y-53765980D02*
X233092250Y-53765980D01*
X234331938Y-54005712D02*
X234461400Y-54005730D01*
X232951400Y-54149480D02*
X232951400Y-53765980D01*
X232951400Y-53765980D02*
X232879450Y-53765980D01*
X233684650Y-54149480D02*
X233684650Y-53571230D01*
X234148694Y-53943388D02*
X234161046Y-54019975D01*
X234356686Y-53673711D02*
X234445172Y-53766036D01*
X234012626Y-53918414D02*
X234032377Y-53795574D01*
X234074952Y-54107383D02*
X234012626Y-53918414D01*
X234245651Y-54167817D02*
X234074952Y-54107383D01*
X233194928Y-53449492D02*
X233194950Y-53548330D01*
X232383268Y-53738853D02*
X232579902Y-53653753D01*
X232329704Y-53911618D02*
X232383268Y-53738853D01*
X232831195Y-53907884D02*
X232769915Y-54088371D01*
X232401618Y-54102857D02*
X232329704Y-53911618D01*
X232771353Y-53730098D02*
X232831195Y-53907884D01*
X231678884Y-54019975D02*
X231765259Y-54072818D01*
X232502388Y-54030986D02*
X232581849Y-54068030D01*
X232668440Y-53801341D02*
X232579909Y-53748735D01*
X231874330Y-53673711D02*
X231962772Y-53766036D01*
X230587633Y-53966386D02*
X230587600Y-53665229D01*
X231550133Y-53795574D02*
X231631082Y-53689273D01*
X231765259Y-54072818D02*
X231849688Y-54005712D01*
X230619244Y-54096763D02*
X230587633Y-53966386D01*
X232577064Y-54166744D02*
X232401618Y-54102857D01*
X232769915Y-54088371D02*
X232577064Y-54166744D01*
X231120600Y-53762180D02*
X231120600Y-53668130D01*
X232579902Y-53653753D02*
X232771353Y-53730098D01*
X232475419Y-53912664D02*
X232502388Y-54030986D01*
X232579909Y-53748735D02*
X232488854Y-53814178D01*
X231466806Y-54049876D02*
X231466800Y-54142780D01*
X230898249Y-53665229D02*
X231044150Y-53665229D01*
X231592651Y-54107383D02*
X231530376Y-53918414D01*
X231044150Y-53665229D02*
X231044150Y-53984580D01*
X231530376Y-53918414D02*
X231550133Y-53795574D01*
X232657517Y-54033289D02*
X232686440Y-53902110D01*
X232488854Y-53814178D02*
X232475419Y-53912664D01*
X231354550Y-53762180D02*
X231354550Y-53980730D01*
X232686440Y-53902110D02*
X232668440Y-53801341D01*
X232581850Y-54068030D02*
X232657517Y-54033289D01*
X231991495Y-53943405D02*
X231666545Y-53943388D01*
X231962772Y-53766036D02*
X231991495Y-53943405D01*
X231767183Y-53649001D02*
X231874330Y-53673711D01*
X231631082Y-53689273D02*
X231767183Y-53649001D01*
X230765052Y-54161976D02*
X230619244Y-54096763D01*
X231763449Y-54167817D02*
X231592651Y-54107383D01*
X231933004Y-54111116D02*
X231763449Y-54167817D01*
X231979150Y-54005730D02*
X231933004Y-54111116D01*
X230907874Y-54085264D02*
X230765052Y-54161976D01*
X231849688Y-54005712D02*
X231979150Y-54005730D01*
X231846800Y-53854230D02*
X231835491Y-53791755D01*
X231666545Y-53943388D02*
X231678884Y-54019975D01*
X231354529Y-53521508D02*
X231354550Y-53668130D01*
X231044150Y-53984580D02*
X231046830Y-54114010D01*
X231671373Y-53854230D02*
X231846800Y-53854230D01*
X231469700Y-53668130D02*
X231469700Y-53762180D01*
X231835491Y-53791755D02*
X231762472Y-53745857D01*
X231418867Y-54052613D02*
X231466806Y-54049876D01*
X231354550Y-53980730D02*
X231418867Y-54052613D01*
X231213600Y-53573280D02*
X231354529Y-53521508D01*
X231213600Y-53668130D02*
X231213600Y-53573280D01*
X231120600Y-53668130D02*
X231213600Y-53668130D01*
X230587600Y-53665229D02*
X230731499Y-53665229D01*
X231213600Y-53762180D02*
X231120600Y-53762180D01*
X231356485Y-54158261D02*
X231231473Y-54108095D01*
X231046830Y-54114010D02*
X231050711Y-54149503D01*
X230912700Y-54149530D02*
X230907874Y-54085264D01*
X231466800Y-54142780D02*
X231356485Y-54158261D01*
X230898265Y-53909723D02*
X230898249Y-53665229D01*
X231762472Y-53745857D02*
X231671373Y-53854230D01*
X231469700Y-53762180D02*
X231354550Y-53762180D01*
X231354550Y-53668130D02*
X231469700Y-53668130D01*
X231050711Y-54149503D02*
X230912700Y-54149530D01*
X231213614Y-54027687D02*
X231213600Y-53762180D01*
X231231473Y-54108095D02*
X231213614Y-54027687D01*
X230505450Y-53762180D02*
X230390349Y-53762180D01*
X229315800Y-53796680D02*
X229246754Y-53739084D01*
X229741380Y-53521508D02*
X229741400Y-53668130D01*
X229741400Y-53980730D02*
X229805717Y-54052613D01*
X230731499Y-53953880D02*
X230740970Y-54022950D01*
X230392235Y-54158261D02*
X230267266Y-54108095D01*
X229246754Y-53739084D02*
X229179649Y-53787023D01*
X230390349Y-53980730D02*
X230454617Y-54052613D01*
X229245758Y-53837898D02*
X229333073Y-53861843D01*
X230731499Y-53665229D02*
X230731499Y-53953880D01*
X230267266Y-54108095D02*
X230249414Y-54027687D01*
X229600450Y-53668130D02*
X229600450Y-53573280D01*
X230502506Y-54049876D02*
X230502499Y-54142780D01*
X230249450Y-53668130D02*
X230249450Y-53573280D01*
X229389124Y-53688879D02*
X229445196Y-53796666D01*
X229943500Y-54149480D02*
X229943500Y-53664230D01*
X230156399Y-53762180D02*
X230156399Y-53668130D01*
X229171900Y-53939487D02*
X229095847Y-53905082D01*
X229240033Y-54163914D02*
X229074164Y-54104475D01*
X229943500Y-53664230D02*
X230085400Y-53664230D01*
X230085400Y-53664230D02*
X230085400Y-54149480D01*
X229333073Y-53861843D02*
X229462504Y-53997049D01*
X230454617Y-54052613D02*
X230502506Y-54049876D01*
X230390349Y-53762180D02*
X230390349Y-53980730D01*
X230505450Y-53668130D02*
X230505450Y-53762180D01*
X230249414Y-54027687D02*
X230249450Y-53762180D01*
X230090200Y-53457229D02*
X230090200Y-53580830D01*
X229462504Y-53997049D02*
X229407701Y-54111768D01*
X229407701Y-54111768D02*
X229240033Y-54163914D01*
X230090200Y-53580830D02*
X229938700Y-53580830D01*
X229507450Y-53668130D02*
X229600450Y-53668130D01*
X229743284Y-54158261D02*
X229618315Y-54108095D01*
X229805717Y-54052613D02*
X229853556Y-54049876D01*
X229179649Y-53787023D02*
X229245758Y-53837898D01*
X229507450Y-53762180D02*
X229507450Y-53668130D01*
X229600463Y-54027687D02*
X229600450Y-53762180D01*
X230390349Y-53668130D02*
X230505450Y-53668130D01*
X230390379Y-53521508D02*
X230390349Y-53668130D01*
X230249450Y-53573280D02*
X230390379Y-53521508D01*
X230156399Y-53668130D02*
X230249450Y-53668130D01*
X230085400Y-54149480D02*
X229943500Y-54149480D01*
X229600450Y-53762180D02*
X229507450Y-53762180D01*
X229445196Y-53796666D02*
X229315800Y-53796680D01*
X229261107Y-53653746D02*
X229389124Y-53688879D01*
X229095847Y-53905082D02*
X229049290Y-53805229D01*
X229741400Y-53762180D02*
X229741400Y-53980730D01*
X229038719Y-54009593D02*
X229171900Y-54009580D01*
X229108081Y-53694299D02*
X229261107Y-53653746D01*
X229049290Y-53805229D02*
X229108081Y-53694299D01*
X230249450Y-53762180D02*
X230156399Y-53762180D01*
X229856400Y-53762180D02*
X229741400Y-53762180D01*
X229074164Y-54104475D02*
X229038719Y-54009593D01*
X230886890Y-54015994D02*
X230898265Y-53909723D01*
X230807265Y-54060361D02*
X230886890Y-54015994D01*
X230740970Y-54022950D02*
X230807265Y-54060361D01*
X230502499Y-54142780D02*
X230392235Y-54158261D01*
X229741400Y-53668130D02*
X229856400Y-53668130D01*
X229938700Y-53580830D02*
X229938674Y-53457241D01*
X229600450Y-53573280D02*
X229741380Y-53521508D01*
X229938674Y-53457241D02*
X230090200Y-53457229D01*
X229853556Y-54049876D02*
X229853550Y-54142780D01*
X229853550Y-54142780D02*
X229743284Y-54158261D01*
X229856400Y-53668130D02*
X229856400Y-53762180D01*
X229618315Y-54108095D02*
X229600463Y-54027687D01*
X234023750Y-48345515D02*
X233449603Y-48001403D01*
X234681342Y-40146822D02*
X234109416Y-39314450D01*
X234818248Y-45133674D02*
X235271948Y-45255365D01*
X231028539Y-41231562D02*
X231175649Y-42154135D01*
X231575699Y-43767895D02*
X231214900Y-43130060D01*
X234818711Y-44621017D02*
X234506744Y-44835261D01*
X233411170Y-45133682D02*
X233738728Y-44983792D01*
X235271948Y-45255365D02*
X235730556Y-45284174D01*
X235027574Y-44305415D02*
X234818711Y-44621017D01*
X236192486Y-45220185D02*
X236656153Y-45063483D01*
X233138341Y-41017900D02*
X233664424Y-41505074D01*
X233738728Y-44983792D02*
X233286667Y-44929680D01*
X231976139Y-40622148D02*
X231037010Y-40255445D01*
X233208366Y-44320983D02*
X233127445Y-43937370D01*
X234102550Y-42052840D02*
X234114643Y-42071309D01*
X233422626Y-44632963D02*
X233208366Y-44320983D01*
X230192127Y-44110276D02*
X230849657Y-44658203D01*
X234109416Y-39314450D02*
X233539239Y-40143606D01*
X232446977Y-44604537D02*
X231998043Y-44264975D01*
X238614958Y-43433650D02*
X239098998Y-42642393D01*
X230051523Y-42460085D02*
X229130365Y-42642401D01*
X229130365Y-42642401D02*
X229614441Y-43433672D01*
X236656153Y-45063483D02*
X237379777Y-44658173D01*
X234123160Y-44916110D02*
X233738224Y-44841832D01*
X235082681Y-41024520D02*
X234681342Y-40146822D01*
X233286667Y-44929680D02*
X232888015Y-44816224D01*
X238177905Y-42460015D02*
X237278313Y-42427987D01*
X231573259Y-45063441D02*
X232036885Y-45220193D01*
X237379777Y-44658173D02*
X238037298Y-44110236D01*
X238037298Y-44110236D02*
X238614958Y-43433650D01*
X232036885Y-45220193D02*
X232498822Y-45284194D01*
X232800050Y-41121730D02*
X231976139Y-40622148D01*
X231214900Y-43130060D02*
X230951099Y-42428045D01*
X237278313Y-42427987D02*
X237014463Y-43130045D01*
X235730556Y-45284174D02*
X236192486Y-45220185D01*
X235341377Y-44816214D02*
X234942698Y-44929672D01*
X236231329Y-44264966D02*
X235782419Y-44604527D01*
X235101850Y-43920495D02*
X235027574Y-44305415D01*
X237014463Y-43130045D02*
X236653613Y-43767887D01*
X239098998Y-42642393D02*
X238177905Y-42460015D01*
X233664424Y-41505074D02*
X234102546Y-42052845D01*
X234114643Y-42071309D02*
X234126891Y-42052840D01*
X231998043Y-44264975D02*
X231575702Y-43767895D01*
X233127445Y-43937370D02*
X233201735Y-43552478D01*
X235782419Y-44604527D02*
X235341377Y-44816214D01*
X234126891Y-42052840D02*
X234561440Y-41508830D01*
X232640470Y-41804619D02*
X232800049Y-41121733D01*
X229614441Y-43433672D02*
X230192127Y-44110276D01*
X234561440Y-41508830D02*
X235082681Y-41024520D01*
X234506744Y-44835261D02*
X234123160Y-44916110D01*
X232888015Y-44816224D02*
X232446977Y-44604537D01*
X233539239Y-40143606D02*
X233138341Y-41017900D01*
X232582855Y-42488513D02*
X232640470Y-41804619D01*
X233722613Y-43022633D02*
X234106185Y-42941755D01*
X233410627Y-43236887D02*
X233722613Y-43022633D01*
X233201735Y-43552478D02*
X233410627Y-43236887D01*
X232957456Y-45255379D02*
X233411170Y-45133682D01*
X231175649Y-42154135D02*
X231900141Y-42270361D01*
X233738224Y-44841832D02*
X233422626Y-44632963D01*
X231037010Y-40255445D02*
X231028539Y-41231562D01*
X232498822Y-45284194D02*
X232957456Y-45255379D01*
X230849657Y-44658203D02*
X231573259Y-45063441D01*
X230951099Y-42428045D02*
X230051523Y-42460085D01*
X231900141Y-42270361D02*
X232582855Y-42488513D01*
X236653613Y-43767887D02*
X236231329Y-44264966D01*
X235295882Y-46673944D02*
X234527220Y-47642655D01*
X234527200Y-47642655D02*
X234835274Y-47302048D01*
X240758055Y-45718070D02*
X240131534Y-45701911D01*
X234942700Y-44929672D02*
X234490690Y-44983784D01*
X237192340Y-40255410D02*
X236248155Y-40624616D01*
X230636319Y-46071480D02*
X231668673Y-46445092D01*
X236323557Y-42271765D02*
X237053701Y-42154102D01*
X239273605Y-45468330D02*
X240122020Y-44298630D01*
X234576850Y-47786065D02*
X234986513Y-47527202D01*
X237804944Y-46613102D02*
X238814502Y-46583168D01*
X231668673Y-46445092D02*
X232694030Y-47004503D01*
X235635941Y-42492960D02*
X236323557Y-42271765D01*
X236248155Y-40624616D02*
X235420640Y-41128120D01*
X235744266Y-46553177D02*
X236416965Y-46153586D01*
X230424297Y-46613102D02*
X229414726Y-46583168D01*
X236177628Y-45907873D02*
X235295882Y-46673944D01*
X236560542Y-46445092D02*
X235535173Y-47004503D01*
X232933321Y-46673944D02*
X233701980Y-47642655D01*
X228955645Y-45468330D02*
X228107280Y-44298630D01*
X233393939Y-47302048D02*
X232484975Y-46553177D01*
X239506572Y-44417042D02*
X238014594Y-44893063D01*
X235535173Y-47004503D02*
X234576855Y-47786065D01*
X237592911Y-46071480D02*
X236560542Y-46445092D01*
X228722711Y-44417042D02*
X230214655Y-44893063D01*
X231812288Y-46153586D02*
X230997934Y-45805463D01*
X232694030Y-47004503D02*
X233652345Y-47786065D01*
X228321400Y-46729070D02*
X227471245Y-45718070D01*
X235420640Y-41128120D02*
X235579142Y-41810093D01*
X238814502Y-46583168D02*
X239907800Y-46729070D01*
X237106012Y-45321796D02*
X236177628Y-45907873D01*
X227471245Y-45718070D02*
X228097750Y-45701911D01*
X239907800Y-46729070D02*
X240758055Y-45718070D01*
X238184491Y-45559985D02*
X239273605Y-45468330D01*
X231123219Y-45321796D02*
X232051587Y-45907873D01*
X228107280Y-44298630D02*
X228722711Y-44417042D01*
X232051587Y-45907873D02*
X232933321Y-46673944D01*
X237200790Y-41231544D02*
X237192340Y-40255410D01*
X238014594Y-44893063D02*
X237106012Y-45321796D01*
X240122020Y-44298630D02*
X239506572Y-44417042D01*
X237231326Y-45805463D02*
X238184491Y-45559985D01*
X238572232Y-45847313D02*
X237592911Y-46071480D01*
X236113530Y-47007680D02*
X236898247Y-46770673D01*
X234986513Y-47527202D02*
X236113530Y-47007680D01*
X230214655Y-44893063D02*
X231123219Y-45321796D01*
X233702000Y-47642655D02*
X233393939Y-47302048D01*
X234835274Y-47302048D02*
X235744266Y-46553177D01*
X240131534Y-45701911D02*
X238572232Y-45847313D01*
X230044769Y-45559985D02*
X228955645Y-45468330D01*
X230997934Y-45805463D02*
X230044769Y-45559985D01*
X235579142Y-41810093D02*
X235635941Y-42492960D01*
X229657017Y-45847313D02*
X230636319Y-46071480D01*
X237053700Y-42154100D02*
X237200790Y-41231544D01*
X234490690Y-44983784D02*
X234818248Y-45133674D01*
X236416965Y-46153586D02*
X237231326Y-45805463D01*
X228097750Y-45701911D02*
X229657017Y-45847313D01*
X236898247Y-46770673D02*
X237804944Y-46613102D01*
X229414726Y-46583168D02*
X228321400Y-46729070D01*
X232484975Y-46553177D02*
X231812288Y-46153586D01*
X230988709Y-47068213D02*
X229918914Y-46925431D01*
X229918914Y-46925431D02*
X228798154Y-46983242D01*
X228232497Y-47109206D02*
X227670700Y-47311520D01*
X234576022Y-47987857D02*
X234023750Y-48345515D01*
X239980950Y-47219432D02*
X240558550Y-47311520D01*
X239322391Y-47186111D02*
X239980950Y-47219432D01*
X232798324Y-47676071D02*
X231963270Y-47341717D01*
X229664593Y-47233974D02*
X230627708Y-47417548D01*
X227670700Y-47311520D02*
X228219877Y-47219432D01*
X238473718Y-47233974D02*
X239322391Y-47186111D01*
X231700625Y-47791358D02*
X232845315Y-48409932D01*
X228849306Y-47186111D02*
X229664593Y-47233974D01*
X228219877Y-47219432D02*
X228849306Y-47186111D01*
X232845315Y-48409932D02*
X234023750Y-49327795D01*
X228798154Y-46983242D02*
X228232497Y-47109206D01*
X236375201Y-47791358D02*
X237477223Y-47417548D01*
X234023750Y-49327795D02*
X235209946Y-48409932D01*
X230627708Y-47417548D02*
X231700625Y-47791358D01*
X231330996Y-46770673D02*
X230424297Y-46613102D01*
X237477223Y-47417548D02*
X238473718Y-47233974D01*
X231963270Y-47341717D02*
X230988709Y-47068213D01*
X233449603Y-48001403D02*
X232798324Y-47676071D01*
X236041042Y-47305595D02*
X235212419Y-47650672D01*
X232115707Y-47007680D02*
X231330996Y-46770673D01*
X233242701Y-47527202D02*
X232115707Y-47007680D01*
X233652350Y-47786065D02*
X233242701Y-47527202D01*
X235212419Y-47650672D02*
X234576022Y-47987857D01*
X237025928Y-47025882D02*
X236041042Y-47305595D01*
X239320644Y-46955587D02*
X238131116Y-46884794D01*
X240558550Y-47311520D02*
X239935797Y-47093332D01*
X238131116Y-46884794D02*
X237025928Y-47025882D01*
X239935797Y-47093332D02*
X239320644Y-46955587D01*
X235209946Y-48409932D02*
X236375201Y-47791358D01*
X231690169Y-52335862D02*
X231740000Y-52350000D01*
X231288279Y-51679246D02*
X231368676Y-51824756D01*
X231339250Y-51944730D02*
X231305298Y-51864384D01*
X231424149Y-52689680D02*
X231301850Y-52689680D01*
X231669808Y-52292304D02*
X231690169Y-52335862D01*
X231205599Y-51969630D02*
X231287149Y-51969630D01*
X231110528Y-51797532D02*
X231204514Y-51820729D01*
X231075980Y-51896543D02*
X231042576Y-51907352D01*
X231424149Y-52064730D02*
X231424149Y-52689680D01*
X231368676Y-51824756D02*
X231408299Y-51969630D01*
X231081135Y-51739836D02*
X231068647Y-51641320D01*
X231116202Y-51891519D02*
X231075980Y-51896543D01*
X231236203Y-51763577D02*
X231136592Y-51734206D01*
X231688477Y-52253226D02*
X231669808Y-52292304D01*
X231042576Y-51907352D02*
X231013156Y-51820185D01*
X231287149Y-51969630D02*
X231253149Y-51943595D01*
X231107719Y-51735899D02*
X231081135Y-51739836D01*
X231334690Y-51944684D02*
X231339250Y-51944730D01*
X231253149Y-51943595D02*
X231216411Y-51917509D01*
X231740000Y-52240230D02*
X231688477Y-52253226D01*
X231895100Y-52064730D02*
X231895100Y-52240230D01*
X231139983Y-51632303D02*
X231288279Y-51679246D01*
X231136592Y-51734206D02*
X231107719Y-51735899D01*
X231151845Y-51893763D02*
X231116202Y-51891519D01*
X231301850Y-52064730D02*
X231205599Y-52064730D01*
X231301850Y-52689680D02*
X231301850Y-52064730D01*
X231289391Y-51893758D02*
X231334690Y-51944684D01*
X231305298Y-51864384D02*
X231236203Y-51763577D01*
X231056714Y-51804306D02*
X231110528Y-51797532D01*
X231184103Y-51901679D02*
X231151845Y-51893763D01*
X231895100Y-52240230D02*
X231740000Y-52240230D01*
X231103194Y-51635097D02*
X231139983Y-51632303D01*
X231068647Y-51641320D02*
X231103194Y-51635097D01*
X231204514Y-51820729D02*
X231289391Y-51893758D01*
X231013156Y-51820185D02*
X231056714Y-51804306D01*
X231216411Y-51917509D02*
X231184103Y-51901679D01*
X231205599Y-52064730D02*
X231205599Y-51969630D01*
X228871804Y-52254894D02*
X229027469Y-52203968D01*
X228845768Y-52567966D02*
X228813511Y-52407771D01*
X228756900Y-52064730D02*
X228756900Y-51969630D01*
X228756900Y-51969630D02*
X229421450Y-51969630D01*
X229202950Y-52064730D02*
X228756900Y-52064730D01*
X229202950Y-52203980D02*
X229202950Y-52064730D01*
X229027469Y-52203968D02*
X229202950Y-52203980D01*
X228813511Y-52407771D02*
X228871804Y-52254894D01*
X229030854Y-52660259D02*
X228923327Y-52707800D01*
X228923327Y-52707800D02*
X228845768Y-52567966D01*
X228962953Y-52535708D02*
X229030854Y-52660259D01*
X230021475Y-52109981D02*
X230033921Y-52171161D01*
X229713550Y-51969680D02*
X229713550Y-52064730D01*
X229200647Y-52009305D02*
X229162168Y-51939611D01*
X229439548Y-51718335D02*
X229515963Y-51786833D01*
X229331972Y-51691154D02*
X229439548Y-51718335D01*
X229398750Y-51969680D02*
X229484800Y-51969680D01*
X229159333Y-51790766D02*
X229196668Y-51738098D01*
X229162168Y-51939611D02*
X229146336Y-51857572D01*
X229484800Y-51969680D02*
X229463294Y-51908498D01*
X229285576Y-51810629D02*
X229266312Y-51867778D01*
X229325250Y-52064730D02*
X229325250Y-52689680D01*
X229392555Y-51807742D02*
X229338792Y-51790766D01*
X229909968Y-52413943D02*
X230022621Y-52447346D01*
X229713550Y-52064730D02*
X229617300Y-52064730D01*
X229985784Y-52287749D02*
X229862975Y-52334145D01*
X229993150Y-52064730D02*
X230021475Y-52109981D01*
X229566888Y-51876838D02*
X229596906Y-51969679D01*
X229202950Y-52689680D02*
X229202950Y-52303630D01*
X229463294Y-51908498D02*
X229433327Y-51850753D01*
X230161850Y-52064730D02*
X229993150Y-52064730D01*
X229217623Y-52029664D02*
X229200647Y-52009305D01*
X229617300Y-52064730D02*
X229617300Y-52689680D01*
X229202950Y-52303630D02*
X229054650Y-52303630D01*
X229255012Y-51703600D02*
X229331972Y-51691154D01*
X229196668Y-51738098D02*
X229255012Y-51703600D01*
X229266312Y-51867778D02*
X229276514Y-51928908D01*
X229338792Y-51790766D02*
X229285576Y-51810629D01*
X229302549Y-51980929D02*
X229217623Y-52029664D01*
X229276514Y-51928908D02*
X229302549Y-51980929D01*
X229421450Y-52064730D02*
X229325250Y-52064730D01*
X229433327Y-51850753D02*
X229392555Y-51807742D01*
X229146336Y-51857572D02*
X229159333Y-51790766D01*
X229515963Y-51786833D02*
X229566888Y-51876838D01*
X229862975Y-52334145D02*
X229909968Y-52413943D01*
X230161850Y-52394180D02*
X230161850Y-52064730D01*
X229617300Y-52689680D02*
X229495000Y-52689680D01*
X229596906Y-51969679D02*
X229713550Y-51969680D01*
X229398750Y-52064730D02*
X229398750Y-51969680D01*
X229495000Y-52689680D02*
X229495000Y-52064730D01*
X229495000Y-52064730D02*
X229398750Y-52064730D01*
X229325250Y-52689680D02*
X229202950Y-52689680D01*
X230033921Y-52171161D02*
X229985784Y-52287749D01*
X229421450Y-51969630D02*
X229421450Y-52064730D01*
X227418122Y-51980050D02*
X227485476Y-51968507D01*
X227329214Y-52059501D02*
X227364310Y-52011811D01*
X227450409Y-52415691D02*
X227474752Y-52358492D01*
X227478654Y-52207399D02*
X227416429Y-52278735D01*
X235020971Y-43536882D02*
X235101850Y-43920495D01*
X234806712Y-43224902D02*
X235020971Y-43536882D01*
X227381333Y-52256782D02*
X227349024Y-52222283D01*
X227316768Y-52119785D02*
X227329214Y-52059501D01*
X227325827Y-52176236D02*
X227316768Y-52119785D01*
X227349024Y-52222283D02*
X227325827Y-52176236D01*
X227416429Y-52278735D02*
X227381333Y-52256782D01*
X227443608Y-52176236D02*
X227478654Y-52207399D01*
X227443608Y-52080657D02*
X227427729Y-52126057D01*
X227536400Y-52132430D02*
X227485474Y-52065872D01*
X234491106Y-43016034D02*
X234806712Y-43224902D01*
X227427729Y-52126057D02*
X227443608Y-52176236D01*
X234106185Y-42941755D02*
X234491106Y-43016034D01*
X227536400Y-52338730D02*
X227536400Y-52132430D01*
X227528516Y-52338729D02*
X227536400Y-52338730D01*
X227474752Y-52358492D02*
X227528516Y-52338729D01*
X227461712Y-52466069D02*
X227450409Y-52415691D01*
X227364310Y-52011811D02*
X227418122Y-51980050D01*
X227657600Y-52518680D02*
X227633804Y-52534511D01*
X227485474Y-52065872D02*
X227443608Y-52080657D01*
X227587408Y-52542526D02*
X227536433Y-52532874D01*
X227633804Y-52534511D02*
X227587408Y-52542526D01*
X227492278Y-52506242D02*
X227461712Y-52466069D01*
X227536433Y-52532874D02*
X227492278Y-52506242D01*
X227953100Y-52689730D02*
X227830750Y-52689730D01*
X227830750Y-52064780D02*
X227727750Y-52064780D01*
X228965791Y-52334145D02*
X228938062Y-52415686D01*
X228365722Y-52346636D02*
X228358356Y-52312635D01*
X228558774Y-52064727D02*
X228318700Y-52064730D01*
X229054650Y-52303630D02*
X228965791Y-52334145D01*
X228318700Y-51969680D02*
X228813500Y-51969680D01*
X228026650Y-51969680D02*
X228341400Y-51969680D01*
X227657568Y-52138210D02*
X227657600Y-52338730D01*
X228533850Y-52410030D02*
X228711600Y-52643230D01*
X228612506Y-52397016D02*
X228545152Y-52410012D01*
X228579134Y-52284907D02*
X228604074Y-52202818D01*
X227830750Y-52434930D02*
X227657600Y-52434930D01*
X228712714Y-52297405D02*
X228671397Y-52359083D01*
X228712714Y-52121878D02*
X228728546Y-52213026D01*
X228049300Y-52064780D02*
X227953100Y-52064780D01*
X228682150Y-52064730D02*
X228712714Y-52121878D01*
X228813500Y-51969680D02*
X228813500Y-52064730D01*
X228358356Y-52312635D02*
X228380459Y-52269624D01*
X228122850Y-52689680D02*
X228122850Y-52064730D01*
X228049300Y-51969680D02*
X228049300Y-52064780D01*
X228341400Y-52064730D02*
X228245200Y-52064730D01*
X228813500Y-52064730D02*
X228682150Y-52064730D01*
X227953100Y-52064780D02*
X227953100Y-52689730D01*
X228671397Y-52359083D02*
X228612506Y-52397016D01*
X228728546Y-52213026D02*
X228712714Y-52297405D01*
X227657600Y-52338730D02*
X227830750Y-52338730D01*
X228318700Y-52064730D02*
X228318700Y-51969680D01*
X228604074Y-52202818D02*
X228589340Y-52120781D01*
X228245200Y-52689680D02*
X228122850Y-52689680D01*
X227830750Y-52338730D02*
X227830750Y-52064780D01*
X228516858Y-52312635D02*
X228579134Y-52284907D01*
X228026650Y-52064730D02*
X228026650Y-51969680D01*
X228459162Y-52280974D02*
X228516858Y-52312635D01*
X228380459Y-52269624D02*
X228437657Y-52253794D01*
X228392356Y-52391886D02*
X228365722Y-52346636D01*
X228245200Y-52064730D02*
X228245200Y-52689680D01*
X228122850Y-52064730D02*
X228026650Y-52064730D01*
X227727750Y-51969680D02*
X228049300Y-51969680D01*
X227485476Y-51968507D02*
X227612865Y-52012612D01*
X228938062Y-52415686D02*
X228962953Y-52535708D01*
X228341400Y-51969680D02*
X228341400Y-52064730D01*
X227830750Y-52689730D02*
X227830750Y-52434930D01*
X227727750Y-52064780D02*
X227727750Y-51969680D01*
X228437657Y-52253794D02*
X228459162Y-52280974D01*
X228602929Y-52708890D02*
X228392356Y-52391886D01*
X228545152Y-52410012D02*
X228533850Y-52410030D01*
X228589340Y-52120781D02*
X228558774Y-52064727D01*
X228711600Y-52643230D02*
X228602929Y-52708890D01*
X227657600Y-52434930D02*
X227657600Y-52518680D01*
X227612865Y-52012612D02*
X227657568Y-52138210D01*
X230284121Y-52064730D02*
X230284100Y-52689680D01*
X230109788Y-52430968D02*
X230161858Y-52394181D01*
X230022621Y-52447346D02*
X230109788Y-52430968D01*
X231520400Y-52064730D02*
X231424149Y-52064730D01*
X231520400Y-51969630D02*
X231520400Y-52064730D01*
X231408299Y-51969630D02*
X231520400Y-51969630D01*
X231228299Y-51969630D02*
X231228291Y-52064756D01*
X230615800Y-51969630D02*
X231228299Y-51969630D01*
X230615800Y-52064780D02*
X230615800Y-51969630D01*
X230683750Y-52064780D02*
X230615800Y-52064780D01*
X230902226Y-52374941D02*
X230965647Y-52361902D01*
X230683735Y-52284391D02*
X230683750Y-52064780D01*
X230696181Y-52360806D02*
X230683735Y-52284391D01*
X230832633Y-52352290D02*
X230902226Y-52374941D01*
X230730729Y-52416859D02*
X230696181Y-52360806D01*
X231132050Y-52689680D02*
X231009800Y-52689680D01*
X230284100Y-52689680D02*
X230161850Y-52689680D01*
X230782202Y-52453050D02*
X230730729Y-52416859D01*
X230846769Y-52471170D02*
X230782202Y-52453050D01*
X229909406Y-52157257D02*
X229897454Y-52106432D01*
X230654316Y-52625142D02*
X230846769Y-52471170D01*
X229897454Y-52106432D02*
X229869726Y-52064764D01*
X230757313Y-52712308D02*
X230654316Y-52625142D01*
X229736174Y-52254352D02*
X229763350Y-52254380D01*
X229763350Y-52254380D02*
X229874311Y-52231531D01*
X231009800Y-52446280D02*
X230757313Y-52712308D01*
X230805999Y-52275280D02*
X230832633Y-52352290D01*
X231009800Y-52689680D02*
X231009800Y-52446280D01*
X231132050Y-52064780D02*
X231132050Y-52689680D01*
X230380299Y-52064730D02*
X230284121Y-52064730D01*
X229869726Y-52064764D02*
X229690850Y-52064730D01*
X230016939Y-52547014D02*
X229914489Y-52530487D01*
X229824486Y-52478665D02*
X229760517Y-52387567D01*
X231228291Y-52064756D02*
X231132050Y-52064780D01*
X231009800Y-52064780D02*
X230805999Y-52064780D01*
X230110327Y-52534017D02*
X230016939Y-52547014D01*
X231009802Y-52329644D02*
X231009800Y-52064780D01*
X230965647Y-52361902D02*
X231009802Y-52329644D01*
X230380299Y-51969680D02*
X230380299Y-52064730D01*
X229690850Y-52064730D02*
X229690850Y-51969680D01*
X230161850Y-52508530D02*
X230110327Y-52534017D01*
X230161850Y-52689680D02*
X230161850Y-52508530D01*
X229874311Y-52231531D02*
X229909406Y-52157257D01*
X230805999Y-52064780D02*
X230805999Y-52275280D01*
X229690850Y-51969680D02*
X230380299Y-51969680D01*
X229760517Y-52387567D02*
X229736174Y-52254352D01*
X229914489Y-52530487D02*
X229824486Y-52478665D01*
X231998102Y-52497231D02*
X231998100Y-52064730D01*
X231923979Y-52549848D02*
X231998102Y-52497231D01*
X231886050Y-52440630D02*
X231760350Y-52440630D01*
X231817000Y-52569662D02*
X231923979Y-52549848D01*
X231717887Y-52552686D02*
X231817000Y-52569662D01*
X231683388Y-52494941D02*
X231717887Y-52552686D01*
X231760350Y-52440630D02*
X231683388Y-52494941D01*
X231886050Y-52349980D02*
X231886050Y-52440630D01*
X231740000Y-52350000D02*
X231886050Y-52349980D01*
D10*
X114657142Y-43588571D02*
X114657142Y-42088571D01*
X115228571Y-42088571D01*
X115371428Y-42160000D01*
X115442857Y-42231428D01*
X115514285Y-42374285D01*
X115514285Y-42588571D01*
X115442857Y-42731428D01*
X115371428Y-42802857D01*
X115228571Y-42874285D01*
X114657142Y-42874285D01*
X116157142Y-42802857D02*
X116657142Y-42802857D01*
X116871428Y-43588571D02*
X116157142Y-43588571D01*
X116157142Y-42088571D01*
X116871428Y-42088571D01*
X118300000Y-42160000D02*
X118157142Y-42088571D01*
X117942857Y-42088571D01*
X117728571Y-42160000D01*
X117585714Y-42302857D01*
X117514285Y-42445714D01*
X117442857Y-42731428D01*
X117442857Y-42945714D01*
X117514285Y-43231428D01*
X117585714Y-43374285D01*
X117728571Y-43517142D01*
X117942857Y-43588571D01*
X118085714Y-43588571D01*
X118300000Y-43517142D01*
X118371428Y-43445714D01*
X118371428Y-42945714D01*
X118085714Y-42945714D01*
X119085714Y-43517142D02*
X119085714Y-43588571D01*
X119014285Y-43731428D01*
X118942857Y-43802857D01*
X120871428Y-43588571D02*
X120871428Y-42088571D01*
X121585714Y-43588571D02*
X121585714Y-42088571D01*
X122085714Y-42088571D02*
X122942857Y-42088571D01*
X122514285Y-43588571D02*
X122514285Y-42088571D01*
X124585714Y-43588571D02*
X124585714Y-42088571D01*
X124942857Y-42088571D01*
X125157142Y-42160000D01*
X125300000Y-42302857D01*
X125371428Y-42445714D01*
X125442857Y-42731428D01*
X125442857Y-42945714D01*
X125371428Y-43231428D01*
X125300000Y-43374285D01*
X125157142Y-43517142D01*
X124942857Y-43588571D01*
X124585714Y-43588571D01*
X126085714Y-43588571D02*
X126085714Y-42088571D01*
X126085714Y-42802857D02*
X126942857Y-42802857D01*
X126942857Y-43588571D02*
X126942857Y-42088571D01*
X111907142Y-46138571D02*
X111907142Y-44638571D01*
X112264285Y-44638571D01*
X112478571Y-44710000D01*
X112621428Y-44852857D01*
X112692857Y-44995714D01*
X112764285Y-45281428D01*
X112764285Y-45495714D01*
X112692857Y-45781428D01*
X112621428Y-45924285D01*
X112478571Y-46067142D01*
X112264285Y-46138571D01*
X111907142Y-46138571D01*
X113407142Y-46138571D02*
X113407142Y-44638571D01*
X113978571Y-44638571D01*
X114121428Y-44710000D01*
X114192857Y-44781428D01*
X114264285Y-44924285D01*
X114264285Y-45138571D01*
X114192857Y-45281428D01*
X114121428Y-45352857D01*
X113978571Y-45424285D01*
X113407142Y-45424285D01*
X114692857Y-44638571D02*
X115550000Y-44638571D01*
X115121428Y-46138571D02*
X115121428Y-44638571D01*
X117692857Y-45352857D02*
X117907142Y-45424285D01*
X117978571Y-45495714D01*
X118050000Y-45638571D01*
X118050000Y-45852857D01*
X117978571Y-45995714D01*
X117907142Y-46067142D01*
X117764285Y-46138571D01*
X117192857Y-46138571D01*
X117192857Y-44638571D01*
X117692857Y-44638571D01*
X117835714Y-44710000D01*
X117907142Y-44781428D01*
X117978571Y-44924285D01*
X117978571Y-45067142D01*
X117907142Y-45210000D01*
X117835714Y-45281428D01*
X117692857Y-45352857D01*
X117192857Y-45352857D01*
X118907142Y-46138571D02*
X118764285Y-46067142D01*
X118692857Y-45995714D01*
X118621428Y-45852857D01*
X118621428Y-45424285D01*
X118692857Y-45281428D01*
X118764285Y-45210000D01*
X118907142Y-45138571D01*
X119121428Y-45138571D01*
X119264285Y-45210000D01*
X119335714Y-45281428D01*
X119407142Y-45424285D01*
X119407142Y-45852857D01*
X119335714Y-45995714D01*
X119264285Y-46067142D01*
X119121428Y-46138571D01*
X118907142Y-46138571D01*
X120692857Y-46138571D02*
X120692857Y-45352857D01*
X120621428Y-45210000D01*
X120478571Y-45138571D01*
X120192857Y-45138571D01*
X120050000Y-45210000D01*
X120692857Y-46067142D02*
X120550000Y-46138571D01*
X120192857Y-46138571D01*
X120050000Y-46067142D01*
X119978571Y-45924285D01*
X119978571Y-45781428D01*
X120050000Y-45638571D01*
X120192857Y-45567142D01*
X120550000Y-45567142D01*
X120692857Y-45495714D01*
X121407142Y-46138571D02*
X121407142Y-45138571D01*
X121407142Y-45424285D02*
X121478571Y-45281428D01*
X121550000Y-45210000D01*
X121692857Y-45138571D01*
X121835714Y-45138571D01*
X122978571Y-46138571D02*
X122978571Y-44638571D01*
X122978571Y-46067142D02*
X122835714Y-46138571D01*
X122550000Y-46138571D01*
X122407142Y-46067142D01*
X122335714Y-45995714D01*
X122264285Y-45852857D01*
X122264285Y-45424285D01*
X122335714Y-45281428D01*
X122407142Y-45210000D01*
X122550000Y-45138571D01*
X122835714Y-45138571D01*
X122978571Y-45210000D01*
X123692857Y-45567142D02*
X124835714Y-45567142D01*
X125550000Y-46138571D02*
X125550000Y-44638571D01*
X127050000Y-44710000D02*
X126907142Y-44638571D01*
X126692857Y-44638571D01*
X126478571Y-44710000D01*
X126335714Y-44852857D01*
X126264285Y-44995714D01*
X126192857Y-45281428D01*
X126192857Y-45495714D01*
X126264285Y-45781428D01*
X126335714Y-45924285D01*
X126478571Y-46067142D01*
X126692857Y-46138571D01*
X126835714Y-46138571D01*
X127050000Y-46067142D01*
X127121428Y-45995714D01*
X127121428Y-45495714D01*
X126835714Y-45495714D01*
X128264285Y-45352857D02*
X128478571Y-45424285D01*
X128550000Y-45495714D01*
X128621428Y-45638571D01*
X128621428Y-45852857D01*
X128550000Y-45995714D01*
X128478571Y-46067142D01*
X128335714Y-46138571D01*
X127764285Y-46138571D01*
X127764285Y-44638571D01*
X128264285Y-44638571D01*
X128407142Y-44710000D01*
X128478571Y-44781428D01*
X128550000Y-44924285D01*
X128550000Y-45067142D01*
X128478571Y-45210000D01*
X128407142Y-45281428D01*
X128264285Y-45352857D01*
X127764285Y-45352857D01*
X129050000Y-44638571D02*
X129907142Y-44638571D01*
X129478571Y-46138571D02*
X129478571Y-44638571D01*
X112550000Y-48688571D02*
X112550000Y-47188571D01*
X113121428Y-47188571D01*
X113264285Y-47260000D01*
X113335714Y-47331428D01*
X113407142Y-47474285D01*
X113407142Y-47688571D01*
X113335714Y-47831428D01*
X113264285Y-47902857D01*
X113121428Y-47974285D01*
X112550000Y-47974285D01*
X114050000Y-48545714D02*
X114121428Y-48617142D01*
X114050000Y-48688571D01*
X113978571Y-48617142D01*
X114050000Y-48545714D01*
X114050000Y-48688571D01*
X114692857Y-48260000D02*
X115407142Y-48260000D01*
X114550000Y-48688571D02*
X115050000Y-47188571D01*
X115550000Y-48688571D01*
X116692857Y-48688571D02*
X116692857Y-47188571D01*
X116692857Y-48617142D02*
X116550000Y-48688571D01*
X116264285Y-48688571D01*
X116121428Y-48617142D01*
X116050000Y-48545714D01*
X115978571Y-48402857D01*
X115978571Y-47974285D01*
X116050000Y-47831428D01*
X116121428Y-47760000D01*
X116264285Y-47688571D01*
X116550000Y-47688571D01*
X116692857Y-47760000D01*
X117407142Y-48688571D02*
X117407142Y-47688571D01*
X117407142Y-47188571D02*
X117335714Y-47260000D01*
X117407142Y-47331428D01*
X117478571Y-47260000D01*
X117407142Y-47188571D01*
X117407142Y-47331428D01*
X117907142Y-47688571D02*
X118478571Y-47688571D01*
X118121428Y-47188571D02*
X118121428Y-48474285D01*
X118192857Y-48617142D01*
X118335714Y-48688571D01*
X118478571Y-48688571D01*
X118835714Y-47688571D02*
X119192857Y-48688571D01*
X119550000Y-47688571D02*
X119192857Y-48688571D01*
X119050000Y-49045714D01*
X118978571Y-49117142D01*
X118835714Y-49188571D01*
X120764285Y-48688571D02*
X120764285Y-47902857D01*
X120692857Y-47760000D01*
X120550000Y-47688571D01*
X120264285Y-47688571D01*
X120121428Y-47760000D01*
X120764285Y-48617142D02*
X120621428Y-48688571D01*
X120264285Y-48688571D01*
X120121428Y-48617142D01*
X120050000Y-48474285D01*
X120050000Y-48331428D01*
X120121428Y-48188571D01*
X120264285Y-48117142D01*
X120621428Y-48117142D01*
X120764285Y-48045714D01*
X121550000Y-48617142D02*
X121550000Y-48688571D01*
X121478571Y-48831428D01*
X121407142Y-48902857D01*
X123264285Y-47331428D02*
X123335714Y-47260000D01*
X123478571Y-47188571D01*
X123835714Y-47188571D01*
X123978571Y-47260000D01*
X124050000Y-47331428D01*
X124121428Y-47474285D01*
X124121428Y-47617142D01*
X124050000Y-47831428D01*
X123192857Y-48688571D01*
X124121428Y-48688571D01*
X125050000Y-47188571D02*
X125192857Y-47188571D01*
X125335714Y-47260000D01*
X125407142Y-47331428D01*
X125478571Y-47474285D01*
X125550000Y-47760000D01*
X125550000Y-48117142D01*
X125478571Y-48402857D01*
X125407142Y-48545714D01*
X125335714Y-48617142D01*
X125192857Y-48688571D01*
X125050000Y-48688571D01*
X124907142Y-48617142D01*
X124835714Y-48545714D01*
X124764285Y-48402857D01*
X124692857Y-48117142D01*
X124692857Y-47760000D01*
X124764285Y-47474285D01*
X124835714Y-47331428D01*
X124907142Y-47260000D01*
X125050000Y-47188571D01*
X126121428Y-47331428D02*
X126192857Y-47260000D01*
X126335714Y-47188571D01*
X126692857Y-47188571D01*
X126835714Y-47260000D01*
X126907142Y-47331428D01*
X126978571Y-47474285D01*
X126978571Y-47617142D01*
X126907142Y-47831428D01*
X126050000Y-48688571D01*
X126978571Y-48688571D01*
X127478571Y-47188571D02*
X128407142Y-47188571D01*
X127907142Y-47760000D01*
X128121428Y-47760000D01*
X128264285Y-47831428D01*
X128335714Y-47902857D01*
X128407142Y-48045714D01*
X128407142Y-48402857D01*
X128335714Y-48545714D01*
X128264285Y-48617142D01*
X128121428Y-48688571D01*
X127692857Y-48688571D01*
X127550000Y-48617142D01*
X127478571Y-48545714D01*
X129050000Y-48545714D02*
X129121428Y-48617142D01*
X129050000Y-48688571D01*
X128978571Y-48617142D01*
X129050000Y-48545714D01*
X129050000Y-48688571D01*
D12*
%TO.C,TP18*%
X62850000Y-98900000D02*
G75*
G02*
X58070000Y-98900000I-2390000J0D01*
G01*
X58070000Y-98900000D02*
G75*
G02*
X62850000Y-98900000I2390000J0D01*
G01*
X58070000Y-98900000D02*
X58070000Y-98900000D01*
X62850000Y-98900000D02*
X62850000Y-98900000D01*
%TO.C,TP17*%
X62850000Y-61650000D02*
G75*
G02*
X58070000Y-61650000I-2390000J0D01*
G01*
X58070000Y-61650000D02*
G75*
G02*
X62850000Y-61650000I2390000J0D01*
G01*
X58070000Y-61650000D02*
X58070000Y-61650000D01*
X62850000Y-61650000D02*
X62850000Y-61650000D01*
%TO.C,TP16*%
X170810000Y-108330000D02*
G75*
G02*
X166030000Y-108330000I-2390000J0D01*
G01*
X166030000Y-108330000D02*
G75*
G02*
X170810000Y-108330000I2390000J0D01*
G01*
X166030000Y-108330000D02*
X166030000Y-108330000D01*
X170810000Y-108330000D02*
X170810000Y-108330000D01*
%TO.C,TP15*%
X170900000Y-53200000D02*
G75*
G02*
X166120000Y-53200000I-2390000J0D01*
G01*
X166120000Y-53200000D02*
G75*
G02*
X170900000Y-53200000I2390000J0D01*
G01*
X166120000Y-53200000D02*
X166120000Y-53200000D01*
X170900000Y-53200000D02*
X170900000Y-53200000D01*
%TO.C,J14*%
X200150000Y-84350000D02*
X206400000Y-84350000D01*
X200150000Y-74350000D02*
X200150000Y-84350000D01*
X212650000Y-74350000D02*
X200150000Y-74350000D01*
X212650000Y-81850000D02*
X212650000Y-74350000D01*
D13*
%TO.C,C3*%
X193230000Y-101480000D02*
X163360000Y-101480000D01*
X193230000Y-59580000D02*
X193230000Y-101480000D01*
X163360000Y-59580000D02*
X193230000Y-59580000D01*
X163360000Y-101480000D02*
X163360000Y-59580000D01*
%TO.C,C1*%
X129910000Y-101480000D02*
X100040000Y-101480000D01*
X129910000Y-59580000D02*
X129910000Y-101480000D01*
X100040000Y-59580000D02*
X129910000Y-59580000D01*
X100040000Y-101480000D02*
X100040000Y-59580000D01*
%TO.C,C2*%
X161590000Y-101480000D02*
X131720000Y-101480000D01*
X161590000Y-59580000D02*
X161590000Y-101480000D01*
X131720000Y-59580000D02*
X161590000Y-59580000D01*
X131720000Y-101480000D02*
X131720000Y-59580000D01*
%TO.C,C4*%
X98240000Y-101480000D02*
X68370000Y-101480000D01*
X98240000Y-59580000D02*
X98240000Y-101480000D01*
X68370000Y-59580000D02*
X98240000Y-59580000D01*
X68370000Y-101480000D02*
X68370000Y-59580000D01*
D12*
%TO.C,pwm gnd*%
X234320000Y-112520000D02*
X234320000Y-112520000D01*
X234320000Y-112320000D02*
X234320000Y-112320000D01*
X234320000Y-112320000D02*
G75*
G02*
X234320000Y-112520000I0J-100000D01*
G01*
X234320000Y-112520000D02*
G75*
G02*
X234320000Y-112320000I0J100000D01*
G01*
X234210000Y-78530000D02*
X234210000Y-78530000D01*
X234210000Y-78330000D02*
X234210000Y-78330000D01*
X234210000Y-78330000D02*
G75*
G02*
X234210000Y-78530000I0J-100000D01*
G01*
X234210000Y-78530000D02*
G75*
G02*
X234210000Y-78330000I0J100000D01*
G01*
%TO.C,fault*%
X228580000Y-101590000D02*
X228580000Y-101590000D01*
X228380000Y-101590000D02*
X228380000Y-101590000D01*
X228380000Y-101590000D02*
G75*
G02*
X228580000Y-101590000I100000J0D01*
G01*
X228580000Y-101590000D02*
G75*
G02*
X228380000Y-101590000I-100000J0D01*
G01*
X228580000Y-67220000D02*
X228580000Y-67220000D01*
X228380000Y-67220000D02*
X228380000Y-67220000D01*
X228380000Y-67220000D02*
G75*
G02*
X228580000Y-67220000I100000J0D01*
G01*
X228580000Y-67220000D02*
G75*
G02*
X228380000Y-67220000I-100000J0D01*
G01*
D13*
%TO.C,J15*%
X235800000Y-76150000D02*
X235800000Y-73490000D01*
X230660000Y-76150000D02*
X235800000Y-76150000D01*
X230660000Y-73490000D02*
X235800000Y-73490000D01*
X230660000Y-76150000D02*
X230660000Y-73490000D01*
X229390000Y-76150000D02*
X228060000Y-76150000D01*
X228060000Y-76150000D02*
X228060000Y-74820000D01*
%TO.C,J13*%
X235840000Y-110670000D02*
X235840000Y-108010000D01*
X230700000Y-110670000D02*
X235840000Y-110670000D01*
X230700000Y-108010000D02*
X235840000Y-108010000D01*
X230700000Y-110670000D02*
X230700000Y-108010000D01*
X229430000Y-110670000D02*
X228100000Y-110670000D01*
X228100000Y-110670000D02*
X228100000Y-109340000D01*
D12*
%TO.C,E2*%
X200160000Y-92590000D02*
X200160000Y-92590000D01*
X199960000Y-92590000D02*
X199960000Y-92590000D01*
X200160000Y-92590000D02*
G75*
G02*
X199960000Y-92590000I-100000J0D01*
G01*
X199960000Y-92590000D02*
G75*
G02*
X200160000Y-92590000I100000J0D01*
G01*
%TO.C,E2-P*%
X202710000Y-92360000D02*
X202710000Y-92360000D01*
X202510000Y-92360000D02*
X202510000Y-92360000D01*
X202710000Y-92360000D02*
G75*
G02*
X202510000Y-92360000I-100000J0D01*
G01*
X202510000Y-92360000D02*
G75*
G02*
X202710000Y-92360000I100000J0D01*
G01*
%TO.C,Q1*%
X202285000Y-57390000D02*
X202285000Y-62600000D01*
X202285000Y-62600000D02*
X218415000Y-62600000D01*
X218415000Y-62600000D02*
X218415000Y-59720000D01*
D13*
%TO.C,R2*%
X215735000Y-100332936D02*
X215735000Y-100787064D01*
X217205000Y-100332936D02*
X217205000Y-100787064D01*
D12*
%TO.C,J12*%
X209980000Y-108870000D02*
X202480000Y-108870000D01*
X202480000Y-108870000D02*
X202480000Y-121370000D01*
X202480000Y-121370000D02*
X212480000Y-121370000D01*
X212480000Y-121370000D02*
X212480000Y-115120000D01*
%TO.C,J11*%
X209980000Y-38780000D02*
X202480000Y-38780000D01*
X202480000Y-38780000D02*
X202480000Y-51280000D01*
X202480000Y-51280000D02*
X212480000Y-51280000D01*
X212480000Y-51280000D02*
X212480000Y-45030000D01*
%TO.C,J2*%
X213680000Y-100540000D02*
X209870000Y-100540000D01*
X209870000Y-100540000D02*
X209870000Y-105620000D01*
X209870000Y-105620000D02*
X214950000Y-105620000D01*
X214950000Y-105620000D02*
X214950000Y-101810000D01*
%TO.C,Q2*%
X202285000Y-91720000D02*
X202285000Y-96930000D01*
X202285000Y-96930000D02*
X218415000Y-96930000D01*
X218415000Y-96930000D02*
X218415000Y-94050000D01*
%TO.C,E1-P*%
X221190000Y-63170000D02*
X221190000Y-63170000D01*
X221390000Y-63170000D02*
X221390000Y-63170000D01*
X221390000Y-63170000D02*
G75*
G02*
X221190000Y-63170000I-100000J0D01*
G01*
X221190000Y-63170000D02*
G75*
G02*
X221390000Y-63170000I100000J0D01*
G01*
%TO.C,TP9*%
X193510000Y-47840000D02*
X193510000Y-47840000D01*
X193710000Y-47840000D02*
X193710000Y-47840000D01*
X193710000Y-47840000D02*
G75*
G02*
X193510000Y-47840000I-100000J0D01*
G01*
X193510000Y-47840000D02*
G75*
G02*
X193710000Y-47840000I100000J0D01*
G01*
%TO.C,J4*%
X213680000Y-65960000D02*
X209870000Y-65960000D01*
X209870000Y-65960000D02*
X209870000Y-71040000D01*
X209870000Y-71040000D02*
X214950000Y-71040000D01*
X214950000Y-71040000D02*
X214950000Y-67230000D01*
%TO.C,TP7*%
X193180000Y-115240000D02*
X193180000Y-115240000D01*
X192980000Y-115240000D02*
X192980000Y-115240000D01*
X193180000Y-115240000D02*
G75*
G02*
X192980000Y-115240000I-100000J0D01*
G01*
X192980000Y-115240000D02*
G75*
G02*
X193180000Y-115240000I100000J0D01*
G01*
%TO.C,C1-P*%
X217110000Y-48860000D02*
X217110000Y-48860000D01*
X217110000Y-49060000D02*
X217110000Y-49060000D01*
X217110000Y-48860000D02*
G75*
G02*
X217110000Y-49060000I0J-100000D01*
G01*
X217110000Y-49060000D02*
G75*
G02*
X217110000Y-48860000I0J100000D01*
G01*
%TO.C,C2-P*%
X210510000Y-91480000D02*
X210510000Y-91480000D01*
X210310000Y-91480000D02*
X210310000Y-91480000D01*
X210510000Y-91480000D02*
G75*
G02*
X210310000Y-91480000I-100000J0D01*
G01*
X210310000Y-91480000D02*
G75*
G02*
X210510000Y-91480000I100000J0D01*
G01*
%TO.C,G2*%
X220120000Y-91260000D02*
X220120000Y-91260000D01*
X219920000Y-91260000D02*
X219920000Y-91260000D01*
X220120000Y-91260000D02*
G75*
G02*
X219920000Y-91260000I-100000J0D01*
G01*
X219920000Y-91260000D02*
G75*
G02*
X220120000Y-91260000I100000J0D01*
G01*
%TO.C,E1*%
X229440000Y-63170000D02*
X229440000Y-63170000D01*
X229240000Y-63170000D02*
X229240000Y-63170000D01*
X229440000Y-63170000D02*
G75*
G02*
X229240000Y-63170000I-100000J0D01*
G01*
X229240000Y-63170000D02*
G75*
G02*
X229440000Y-63170000I100000J0D01*
G01*
%TO.C,G1*%
X220020000Y-55710000D02*
X220020000Y-55710000D01*
X220020000Y-55910000D02*
X220020000Y-55910000D01*
X220020000Y-55710000D02*
G75*
G02*
X220020000Y-55910000I0J-100000D01*
G01*
X220020000Y-55910000D02*
G75*
G02*
X220020000Y-55710000I0J100000D01*
G01*
D13*
%TO.C,R3*%
X215735000Y-65842936D02*
X215735000Y-66297064D01*
X217205000Y-65842936D02*
X217205000Y-66297064D01*
D12*
%TO.C,J9*%
X240380000Y-82470000D02*
X240380000Y-89970000D01*
X240380000Y-89970000D02*
X252880000Y-89970000D01*
X252880000Y-89970000D02*
X252880000Y-79970000D01*
X252880000Y-79970000D02*
X246630000Y-79970000D01*
%TO.C,J8*%
X207240000Y-100540000D02*
X203430000Y-100540000D01*
X203430000Y-100540000D02*
X203430000Y-105620000D01*
X203430000Y-105620000D02*
X208510000Y-105620000D01*
X208510000Y-105620000D02*
X208510000Y-101810000D01*
%TO.C,J7*%
X234860000Y-100540000D02*
X231050000Y-100540000D01*
X231050000Y-100540000D02*
X231050000Y-105620000D01*
X231050000Y-105620000D02*
X236130000Y-105620000D01*
X236130000Y-105620000D02*
X236130000Y-101810000D01*
%TO.C,J6*%
X207240000Y-65960000D02*
X203430000Y-65960000D01*
X203430000Y-65960000D02*
X203430000Y-71040000D01*
X203430000Y-71040000D02*
X208510000Y-71040000D01*
X208510000Y-71040000D02*
X208510000Y-67230000D01*
%TO.C,J5*%
X234720000Y-65960000D02*
X230910000Y-65960000D01*
X230910000Y-65960000D02*
X230910000Y-71040000D01*
X230910000Y-71040000D02*
X235990000Y-71040000D01*
X235990000Y-71040000D02*
X235990000Y-67230000D01*
%TO.C,J3*%
X241950000Y-65960000D02*
X238140000Y-65960000D01*
X238140000Y-65960000D02*
X238140000Y-71040000D01*
X238140000Y-71040000D02*
X243220000Y-71040000D01*
X243220000Y-71040000D02*
X243220000Y-67230000D01*
%TO.C,J1*%
X242090000Y-100540000D02*
X238280000Y-100540000D01*
X238280000Y-100540000D02*
X238280000Y-105620000D01*
X238280000Y-105620000D02*
X243360000Y-105620000D01*
X243360000Y-105620000D02*
X243360000Y-101810000D01*
%TO.C,H6*%
D11*
X152928095Y-112102380D02*
X152928095Y-111102380D01*
X152928095Y-111578571D02*
X153499523Y-111578571D01*
X153499523Y-112102380D02*
X153499523Y-111102380D01*
X154404285Y-111102380D02*
X154213809Y-111102380D01*
X154118571Y-111150000D01*
X154070952Y-111197619D01*
X153975714Y-111340476D01*
X153928095Y-111530952D01*
X153928095Y-111911904D01*
X153975714Y-112007142D01*
X154023333Y-112054761D01*
X154118571Y-112102380D01*
X154309047Y-112102380D01*
X154404285Y-112054761D01*
X154451904Y-112007142D01*
X154499523Y-111911904D01*
X154499523Y-111673809D01*
X154451904Y-111578571D01*
X154404285Y-111530952D01*
X154309047Y-111483333D01*
X154118571Y-111483333D01*
X154023333Y-111530952D01*
X153975714Y-111578571D01*
X153928095Y-111673809D01*
%TO.C,H5*%
X152928095Y-39232380D02*
X152928095Y-38232380D01*
X152928095Y-38708571D02*
X153499523Y-38708571D01*
X153499523Y-39232380D02*
X153499523Y-38232380D01*
X154451904Y-38232380D02*
X153975714Y-38232380D01*
X153928095Y-38708571D01*
X153975714Y-38660952D01*
X154070952Y-38613333D01*
X154309047Y-38613333D01*
X154404285Y-38660952D01*
X154451904Y-38708571D01*
X154499523Y-38803809D01*
X154499523Y-39041904D01*
X154451904Y-39137142D01*
X154404285Y-39184761D01*
X154309047Y-39232380D01*
X154070952Y-39232380D01*
X153975714Y-39184761D01*
X153928095Y-39137142D01*
%TO.C,TP18*%
D14*
X58092619Y-94724523D02*
X58818333Y-94724523D01*
X58455476Y-95994523D02*
X58455476Y-94724523D01*
X59241666Y-95994523D02*
X59241666Y-94724523D01*
X59725476Y-94724523D01*
X59846428Y-94785000D01*
X59906904Y-94845476D01*
X59967380Y-94966428D01*
X59967380Y-95147857D01*
X59906904Y-95268809D01*
X59846428Y-95329285D01*
X59725476Y-95389761D01*
X59241666Y-95389761D01*
X61176904Y-95994523D02*
X60451190Y-95994523D01*
X60814047Y-95994523D02*
X60814047Y-94724523D01*
X60693095Y-94905952D01*
X60572142Y-95026904D01*
X60451190Y-95087380D01*
X61902619Y-95268809D02*
X61781666Y-95208333D01*
X61721190Y-95147857D01*
X61660714Y-95026904D01*
X61660714Y-94966428D01*
X61721190Y-94845476D01*
X61781666Y-94785000D01*
X61902619Y-94724523D01*
X62144523Y-94724523D01*
X62265476Y-94785000D01*
X62325952Y-94845476D01*
X62386428Y-94966428D01*
X62386428Y-95026904D01*
X62325952Y-95147857D01*
X62265476Y-95208333D01*
X62144523Y-95268809D01*
X61902619Y-95268809D01*
X61781666Y-95329285D01*
X61721190Y-95389761D01*
X61660714Y-95510714D01*
X61660714Y-95752619D01*
X61721190Y-95873571D01*
X61781666Y-95934047D01*
X61902619Y-95994523D01*
X62144523Y-95994523D01*
X62265476Y-95934047D01*
X62325952Y-95873571D01*
X62386428Y-95752619D01*
X62386428Y-95510714D01*
X62325952Y-95389761D01*
X62265476Y-95329285D01*
X62144523Y-95268809D01*
%TO.C,TP17*%
X58282619Y-64914523D02*
X59008333Y-64914523D01*
X58645476Y-66184523D02*
X58645476Y-64914523D01*
X59431666Y-66184523D02*
X59431666Y-64914523D01*
X59915476Y-64914523D01*
X60036428Y-64975000D01*
X60096904Y-65035476D01*
X60157380Y-65156428D01*
X60157380Y-65337857D01*
X60096904Y-65458809D01*
X60036428Y-65519285D01*
X59915476Y-65579761D01*
X59431666Y-65579761D01*
X61366904Y-66184523D02*
X60641190Y-66184523D01*
X61004047Y-66184523D02*
X61004047Y-64914523D01*
X60883095Y-65095952D01*
X60762142Y-65216904D01*
X60641190Y-65277380D01*
X61790238Y-64914523D02*
X62636904Y-64914523D01*
X62092619Y-66184523D01*
%TO.C,TP16*%
X166132619Y-112424523D02*
X166858333Y-112424523D01*
X166495476Y-113694523D02*
X166495476Y-112424523D01*
X167281666Y-113694523D02*
X167281666Y-112424523D01*
X167765476Y-112424523D01*
X167886428Y-112485000D01*
X167946904Y-112545476D01*
X168007380Y-112666428D01*
X168007380Y-112847857D01*
X167946904Y-112968809D01*
X167886428Y-113029285D01*
X167765476Y-113089761D01*
X167281666Y-113089761D01*
X169216904Y-113694523D02*
X168491190Y-113694523D01*
X168854047Y-113694523D02*
X168854047Y-112424523D01*
X168733095Y-112605952D01*
X168612142Y-112726904D01*
X168491190Y-112787380D01*
X170305476Y-112424523D02*
X170063571Y-112424523D01*
X169942619Y-112485000D01*
X169882142Y-112545476D01*
X169761190Y-112726904D01*
X169700714Y-112968809D01*
X169700714Y-113452619D01*
X169761190Y-113573571D01*
X169821666Y-113634047D01*
X169942619Y-113694523D01*
X170184523Y-113694523D01*
X170305476Y-113634047D01*
X170365952Y-113573571D01*
X170426428Y-113452619D01*
X170426428Y-113150238D01*
X170365952Y-113029285D01*
X170305476Y-112968809D01*
X170184523Y-112908333D01*
X169942619Y-112908333D01*
X169821666Y-112968809D01*
X169761190Y-113029285D01*
X169700714Y-113150238D01*
%TO.C,TP15*%
X166312619Y-47744523D02*
X167038333Y-47744523D01*
X166675476Y-49014523D02*
X166675476Y-47744523D01*
X167461666Y-49014523D02*
X167461666Y-47744523D01*
X167945476Y-47744523D01*
X168066428Y-47805000D01*
X168126904Y-47865476D01*
X168187380Y-47986428D01*
X168187380Y-48167857D01*
X168126904Y-48288809D01*
X168066428Y-48349285D01*
X167945476Y-48409761D01*
X167461666Y-48409761D01*
X169396904Y-49014523D02*
X168671190Y-49014523D01*
X169034047Y-49014523D02*
X169034047Y-47744523D01*
X168913095Y-47925952D01*
X168792142Y-48046904D01*
X168671190Y-48107380D01*
X170545952Y-47744523D02*
X169941190Y-47744523D01*
X169880714Y-48349285D01*
X169941190Y-48288809D01*
X170062142Y-48228333D01*
X170364523Y-48228333D01*
X170485476Y-48288809D01*
X170545952Y-48349285D01*
X170606428Y-48470238D01*
X170606428Y-48772619D01*
X170545952Y-48893571D01*
X170485476Y-48954047D01*
X170364523Y-49014523D01*
X170062142Y-49014523D01*
X169941190Y-48954047D01*
X169880714Y-48893571D01*
%TO.C,J14*%
X214001904Y-78284523D02*
X214001904Y-79191666D01*
X213941428Y-79373095D01*
X213820476Y-79494047D01*
X213639047Y-79554523D01*
X213518095Y-79554523D01*
X215271904Y-79554523D02*
X214546190Y-79554523D01*
X214909047Y-79554523D02*
X214909047Y-78284523D01*
X214788095Y-78465952D01*
X214667142Y-78586904D01*
X214546190Y-78647380D01*
X216360476Y-78707857D02*
X216360476Y-79554523D01*
X216058095Y-78224047D02*
X215755714Y-79131190D01*
X216541904Y-79131190D01*
%TO.C,C3*%
D11*
X164137142Y-96136666D02*
X164184761Y-96184285D01*
X164232380Y-96327142D01*
X164232380Y-96422380D01*
X164184761Y-96565238D01*
X164089523Y-96660476D01*
X163994285Y-96708095D01*
X163803809Y-96755714D01*
X163660952Y-96755714D01*
X163470476Y-96708095D01*
X163375238Y-96660476D01*
X163280000Y-96565238D01*
X163232380Y-96422380D01*
X163232380Y-96327142D01*
X163280000Y-96184285D01*
X163327619Y-96136666D01*
X163232380Y-95803333D02*
X163232380Y-95184285D01*
X163613333Y-95517619D01*
X163613333Y-95374761D01*
X163660952Y-95279523D01*
X163708571Y-95231904D01*
X163803809Y-95184285D01*
X164041904Y-95184285D01*
X164137142Y-95231904D01*
X164184761Y-95279523D01*
X164232380Y-95374761D01*
X164232380Y-95660476D01*
X164184761Y-95755714D01*
X164137142Y-95803333D01*
%TO.C,C1*%
X100817142Y-96136666D02*
X100864761Y-96184285D01*
X100912380Y-96327142D01*
X100912380Y-96422380D01*
X100864761Y-96565238D01*
X100769523Y-96660476D01*
X100674285Y-96708095D01*
X100483809Y-96755714D01*
X100340952Y-96755714D01*
X100150476Y-96708095D01*
X100055238Y-96660476D01*
X99960000Y-96565238D01*
X99912380Y-96422380D01*
X99912380Y-96327142D01*
X99960000Y-96184285D01*
X100007619Y-96136666D01*
X100912380Y-95184285D02*
X100912380Y-95755714D01*
X100912380Y-95470000D02*
X99912380Y-95470000D01*
X100055238Y-95565238D01*
X100150476Y-95660476D01*
X100198095Y-95755714D01*
%TO.C,C2*%
X132497142Y-96136666D02*
X132544761Y-96184285D01*
X132592380Y-96327142D01*
X132592380Y-96422380D01*
X132544761Y-96565238D01*
X132449523Y-96660476D01*
X132354285Y-96708095D01*
X132163809Y-96755714D01*
X132020952Y-96755714D01*
X131830476Y-96708095D01*
X131735238Y-96660476D01*
X131640000Y-96565238D01*
X131592380Y-96422380D01*
X131592380Y-96327142D01*
X131640000Y-96184285D01*
X131687619Y-96136666D01*
X131687619Y-95755714D02*
X131640000Y-95708095D01*
X131592380Y-95612857D01*
X131592380Y-95374761D01*
X131640000Y-95279523D01*
X131687619Y-95231904D01*
X131782857Y-95184285D01*
X131878095Y-95184285D01*
X132020952Y-95231904D01*
X132592380Y-95803333D01*
X132592380Y-95184285D01*
%TO.C,C4*%
X69147142Y-96136666D02*
X69194761Y-96184285D01*
X69242380Y-96327142D01*
X69242380Y-96422380D01*
X69194761Y-96565238D01*
X69099523Y-96660476D01*
X69004285Y-96708095D01*
X68813809Y-96755714D01*
X68670952Y-96755714D01*
X68480476Y-96708095D01*
X68385238Y-96660476D01*
X68290000Y-96565238D01*
X68242380Y-96422380D01*
X68242380Y-96327142D01*
X68290000Y-96184285D01*
X68337619Y-96136666D01*
X68575714Y-95279523D02*
X69242380Y-95279523D01*
X68194761Y-95517619D02*
X68909047Y-95755714D01*
X68909047Y-95136666D01*
%TO.C,pwm gnd*%
D14*
X228198571Y-114907857D02*
X228198571Y-116177857D01*
X228198571Y-114968333D02*
X228319523Y-114907857D01*
X228561428Y-114907857D01*
X228682380Y-114968333D01*
X228742857Y-115028809D01*
X228803333Y-115149761D01*
X228803333Y-115512619D01*
X228742857Y-115633571D01*
X228682380Y-115694047D01*
X228561428Y-115754523D01*
X228319523Y-115754523D01*
X228198571Y-115694047D01*
X229226666Y-114907857D02*
X229468571Y-115754523D01*
X229710476Y-115149761D01*
X229952380Y-115754523D01*
X230194285Y-114907857D01*
X230678095Y-115754523D02*
X230678095Y-114907857D01*
X230678095Y-115028809D02*
X230738571Y-114968333D01*
X230859523Y-114907857D01*
X231040952Y-114907857D01*
X231161904Y-114968333D01*
X231222380Y-115089285D01*
X231222380Y-115754523D01*
X231222380Y-115089285D02*
X231282857Y-114968333D01*
X231403809Y-114907857D01*
X231585238Y-114907857D01*
X231706190Y-114968333D01*
X231766666Y-115089285D01*
X231766666Y-115754523D01*
X233883333Y-114907857D02*
X233883333Y-115935952D01*
X233822857Y-116056904D01*
X233762380Y-116117380D01*
X233641428Y-116177857D01*
X233460000Y-116177857D01*
X233339047Y-116117380D01*
X233883333Y-115694047D02*
X233762380Y-115754523D01*
X233520476Y-115754523D01*
X233399523Y-115694047D01*
X233339047Y-115633571D01*
X233278571Y-115512619D01*
X233278571Y-115149761D01*
X233339047Y-115028809D01*
X233399523Y-114968333D01*
X233520476Y-114907857D01*
X233762380Y-114907857D01*
X233883333Y-114968333D01*
X234488095Y-114907857D02*
X234488095Y-115754523D01*
X234488095Y-115028809D02*
X234548571Y-114968333D01*
X234669523Y-114907857D01*
X234850952Y-114907857D01*
X234971904Y-114968333D01*
X235032380Y-115089285D01*
X235032380Y-115754523D01*
X236181428Y-115754523D02*
X236181428Y-114484523D01*
X236181428Y-115694047D02*
X236060476Y-115754523D01*
X235818571Y-115754523D01*
X235697619Y-115694047D01*
X235637142Y-115633571D01*
X235576666Y-115512619D01*
X235576666Y-115149761D01*
X235637142Y-115028809D01*
X235697619Y-114968333D01*
X235818571Y-114907857D01*
X236060476Y-114907857D01*
X236181428Y-114968333D01*
X228018571Y-80517857D02*
X228018571Y-81787857D01*
X228018571Y-80578333D02*
X228139523Y-80517857D01*
X228381428Y-80517857D01*
X228502380Y-80578333D01*
X228562857Y-80638809D01*
X228623333Y-80759761D01*
X228623333Y-81122619D01*
X228562857Y-81243571D01*
X228502380Y-81304047D01*
X228381428Y-81364523D01*
X228139523Y-81364523D01*
X228018571Y-81304047D01*
X229046666Y-80517857D02*
X229288571Y-81364523D01*
X229530476Y-80759761D01*
X229772380Y-81364523D01*
X230014285Y-80517857D01*
X230498095Y-81364523D02*
X230498095Y-80517857D01*
X230498095Y-80638809D02*
X230558571Y-80578333D01*
X230679523Y-80517857D01*
X230860952Y-80517857D01*
X230981904Y-80578333D01*
X231042380Y-80699285D01*
X231042380Y-81364523D01*
X231042380Y-80699285D02*
X231102857Y-80578333D01*
X231223809Y-80517857D01*
X231405238Y-80517857D01*
X231526190Y-80578333D01*
X231586666Y-80699285D01*
X231586666Y-81364523D01*
X233703333Y-80517857D02*
X233703333Y-81545952D01*
X233642857Y-81666904D01*
X233582380Y-81727380D01*
X233461428Y-81787857D01*
X233280000Y-81787857D01*
X233159047Y-81727380D01*
X233703333Y-81304047D02*
X233582380Y-81364523D01*
X233340476Y-81364523D01*
X233219523Y-81304047D01*
X233159047Y-81243571D01*
X233098571Y-81122619D01*
X233098571Y-80759761D01*
X233159047Y-80638809D01*
X233219523Y-80578333D01*
X233340476Y-80517857D01*
X233582380Y-80517857D01*
X233703333Y-80578333D01*
X234308095Y-80517857D02*
X234308095Y-81364523D01*
X234308095Y-80638809D02*
X234368571Y-80578333D01*
X234489523Y-80517857D01*
X234670952Y-80517857D01*
X234791904Y-80578333D01*
X234852380Y-80699285D01*
X234852380Y-81364523D01*
X236001428Y-81364523D02*
X236001428Y-80094523D01*
X236001428Y-81304047D02*
X235880476Y-81364523D01*
X235638571Y-81364523D01*
X235517619Y-81304047D01*
X235457142Y-81243571D01*
X235396666Y-81122619D01*
X235396666Y-80759761D01*
X235457142Y-80638809D01*
X235517619Y-80578333D01*
X235638571Y-80517857D01*
X235880476Y-80517857D01*
X236001428Y-80578333D01*
%TO.C,fault*%
X226037857Y-106046428D02*
X226037857Y-105562619D01*
X226884523Y-105865000D02*
X225795952Y-105865000D01*
X225675000Y-105804523D01*
X225614523Y-105683571D01*
X225614523Y-105562619D01*
X226884523Y-104595000D02*
X226219285Y-104595000D01*
X226098333Y-104655476D01*
X226037857Y-104776428D01*
X226037857Y-105018333D01*
X226098333Y-105139285D01*
X226824047Y-104595000D02*
X226884523Y-104715952D01*
X226884523Y-105018333D01*
X226824047Y-105139285D01*
X226703095Y-105199761D01*
X226582142Y-105199761D01*
X226461190Y-105139285D01*
X226400714Y-105018333D01*
X226400714Y-104715952D01*
X226340238Y-104595000D01*
X226037857Y-103445952D02*
X226884523Y-103445952D01*
X226037857Y-103990238D02*
X226703095Y-103990238D01*
X226824047Y-103929761D01*
X226884523Y-103808809D01*
X226884523Y-103627380D01*
X226824047Y-103506428D01*
X226763571Y-103445952D01*
X226884523Y-102659761D02*
X226824047Y-102780714D01*
X226703095Y-102841190D01*
X225614523Y-102841190D01*
X226037857Y-102357380D02*
X226037857Y-101873571D01*
X225614523Y-102175952D02*
X226703095Y-102175952D01*
X226824047Y-102115476D01*
X226884523Y-101994523D01*
X226884523Y-101873571D01*
X226007857Y-71256428D02*
X226007857Y-70772619D01*
X226854523Y-71075000D02*
X225765952Y-71075000D01*
X225645000Y-71014523D01*
X225584523Y-70893571D01*
X225584523Y-70772619D01*
X226854523Y-69805000D02*
X226189285Y-69805000D01*
X226068333Y-69865476D01*
X226007857Y-69986428D01*
X226007857Y-70228333D01*
X226068333Y-70349285D01*
X226794047Y-69805000D02*
X226854523Y-69925952D01*
X226854523Y-70228333D01*
X226794047Y-70349285D01*
X226673095Y-70409761D01*
X226552142Y-70409761D01*
X226431190Y-70349285D01*
X226370714Y-70228333D01*
X226370714Y-69925952D01*
X226310238Y-69805000D01*
X226007857Y-68655952D02*
X226854523Y-68655952D01*
X226007857Y-69200238D02*
X226673095Y-69200238D01*
X226794047Y-69139761D01*
X226854523Y-69018809D01*
X226854523Y-68837380D01*
X226794047Y-68716428D01*
X226733571Y-68655952D01*
X226854523Y-67869761D02*
X226794047Y-67990714D01*
X226673095Y-68051190D01*
X225584523Y-68051190D01*
X226007857Y-67567380D02*
X226007857Y-67083571D01*
X225584523Y-67385952D02*
X226673095Y-67385952D01*
X226794047Y-67325476D01*
X226854523Y-67204523D01*
X226854523Y-67083571D01*
%TO.C,J15*%
D11*
X226022380Y-75829523D02*
X226736666Y-75829523D01*
X226879523Y-75877142D01*
X226974761Y-75972380D01*
X227022380Y-76115238D01*
X227022380Y-76210476D01*
X227022380Y-74829523D02*
X227022380Y-75400952D01*
X227022380Y-75115238D02*
X226022380Y-75115238D01*
X226165238Y-75210476D01*
X226260476Y-75305714D01*
X226308095Y-75400952D01*
X226022380Y-73924761D02*
X226022380Y-74400952D01*
X226498571Y-74448571D01*
X226450952Y-74400952D01*
X226403333Y-74305714D01*
X226403333Y-74067619D01*
X226450952Y-73972380D01*
X226498571Y-73924761D01*
X226593809Y-73877142D01*
X226831904Y-73877142D01*
X226927142Y-73924761D01*
X226974761Y-73972380D01*
X227022380Y-74067619D01*
X227022380Y-74305714D01*
X226974761Y-74400952D01*
X226927142Y-74448571D01*
%TO.C,J13*%
X225762380Y-110409523D02*
X226476666Y-110409523D01*
X226619523Y-110457142D01*
X226714761Y-110552380D01*
X226762380Y-110695238D01*
X226762380Y-110790476D01*
X226762380Y-109409523D02*
X226762380Y-109980952D01*
X226762380Y-109695238D02*
X225762380Y-109695238D01*
X225905238Y-109790476D01*
X226000476Y-109885714D01*
X226048095Y-109980952D01*
X225762380Y-109076190D02*
X225762380Y-108457142D01*
X226143333Y-108790476D01*
X226143333Y-108647619D01*
X226190952Y-108552380D01*
X226238571Y-108504761D01*
X226333809Y-108457142D01*
X226571904Y-108457142D01*
X226667142Y-108504761D01*
X226714761Y-108552380D01*
X226762380Y-108647619D01*
X226762380Y-108933333D01*
X226714761Y-109028571D01*
X226667142Y-109076190D01*
%TO.C,E2*%
D14*
X197599285Y-91116904D02*
X197599285Y-90693571D01*
X198264523Y-90512142D02*
X198264523Y-91116904D01*
X196994523Y-91116904D01*
X196994523Y-90512142D01*
X197115476Y-90028333D02*
X197055000Y-89967857D01*
X196994523Y-89846904D01*
X196994523Y-89544523D01*
X197055000Y-89423571D01*
X197115476Y-89363095D01*
X197236428Y-89302619D01*
X197357380Y-89302619D01*
X197538809Y-89363095D01*
X198264523Y-90088809D01*
X198264523Y-89302619D01*
%TO.C,E2-P*%
X200631904Y-86819285D02*
X201055238Y-86819285D01*
X201236666Y-87484523D02*
X200631904Y-87484523D01*
X200631904Y-86214523D01*
X201236666Y-86214523D01*
X201720476Y-86335476D02*
X201780952Y-86275000D01*
X201901904Y-86214523D01*
X202204285Y-86214523D01*
X202325238Y-86275000D01*
X202385714Y-86335476D01*
X202446190Y-86456428D01*
X202446190Y-86577380D01*
X202385714Y-86758809D01*
X201660000Y-87484523D01*
X202446190Y-87484523D01*
X202990476Y-87000714D02*
X203958095Y-87000714D01*
X204562857Y-87484523D02*
X204562857Y-86214523D01*
X205046666Y-86214523D01*
X205167619Y-86275000D01*
X205228095Y-86335476D01*
X205288571Y-86456428D01*
X205288571Y-86637857D01*
X205228095Y-86758809D01*
X205167619Y-86819285D01*
X205046666Y-86879761D01*
X204562857Y-86879761D01*
%TO.C,Q1*%
X215669047Y-60415476D02*
X215548095Y-60355000D01*
X215427142Y-60234047D01*
X215245714Y-60052619D01*
X215124761Y-59992142D01*
X215003809Y-59992142D01*
X215064285Y-60294523D02*
X214943333Y-60234047D01*
X214822380Y-60113095D01*
X214761904Y-59871190D01*
X214761904Y-59447857D01*
X214822380Y-59205952D01*
X214943333Y-59085000D01*
X215064285Y-59024523D01*
X215306190Y-59024523D01*
X215427142Y-59085000D01*
X215548095Y-59205952D01*
X215608571Y-59447857D01*
X215608571Y-59871190D01*
X215548095Y-60113095D01*
X215427142Y-60234047D01*
X215306190Y-60294523D01*
X215064285Y-60294523D01*
X216818095Y-60294523D02*
X216092380Y-60294523D01*
X216455238Y-60294523D02*
X216455238Y-59024523D01*
X216334285Y-59205952D01*
X216213333Y-59326904D01*
X216092380Y-59387380D01*
%TO.C,R2*%
D11*
X216343333Y-103872380D02*
X216010000Y-103396190D01*
X215771904Y-103872380D02*
X215771904Y-102872380D01*
X216152857Y-102872380D01*
X216248095Y-102920000D01*
X216295714Y-102967619D01*
X216343333Y-103062857D01*
X216343333Y-103205714D01*
X216295714Y-103300952D01*
X216248095Y-103348571D01*
X216152857Y-103396190D01*
X215771904Y-103396190D01*
X216724285Y-102967619D02*
X216771904Y-102920000D01*
X216867142Y-102872380D01*
X217105238Y-102872380D01*
X217200476Y-102920000D01*
X217248095Y-102967619D01*
X217295714Y-103062857D01*
X217295714Y-103158095D01*
X217248095Y-103300952D01*
X216676666Y-103872380D01*
X217295714Y-103872380D01*
%TO.C,J12*%
D14*
X206351904Y-119264523D02*
X206351904Y-120171666D01*
X206291428Y-120353095D01*
X206170476Y-120474047D01*
X205989047Y-120534523D01*
X205868095Y-120534523D01*
X207621904Y-120534523D02*
X206896190Y-120534523D01*
X207259047Y-120534523D02*
X207259047Y-119264523D01*
X207138095Y-119445952D01*
X207017142Y-119566904D01*
X206896190Y-119627380D01*
X208105714Y-119385476D02*
X208166190Y-119325000D01*
X208287142Y-119264523D01*
X208589523Y-119264523D01*
X208710476Y-119325000D01*
X208770952Y-119385476D01*
X208831428Y-119506428D01*
X208831428Y-119627380D01*
X208770952Y-119808809D01*
X208045238Y-120534523D01*
X208831428Y-120534523D01*
%TO.C,J11*%
X198731904Y-48644523D02*
X198731904Y-49551666D01*
X198671428Y-49733095D01*
X198550476Y-49854047D01*
X198369047Y-49914523D01*
X198248095Y-49914523D01*
X200001904Y-49914523D02*
X199276190Y-49914523D01*
X199639047Y-49914523D02*
X199639047Y-48644523D01*
X199518095Y-48825952D01*
X199397142Y-48946904D01*
X199276190Y-49007380D01*
X201211428Y-49914523D02*
X200485714Y-49914523D01*
X200848571Y-49914523D02*
X200848571Y-48644523D01*
X200727619Y-48825952D01*
X200606666Y-48946904D01*
X200485714Y-49007380D01*
%TO.C,J2*%
X211896666Y-106364523D02*
X211896666Y-107271666D01*
X211836190Y-107453095D01*
X211715238Y-107574047D01*
X211533809Y-107634523D01*
X211412857Y-107634523D01*
X212440952Y-106485476D02*
X212501428Y-106425000D01*
X212622380Y-106364523D01*
X212924761Y-106364523D01*
X213045714Y-106425000D01*
X213106190Y-106485476D01*
X213166666Y-106606428D01*
X213166666Y-106727380D01*
X213106190Y-106908809D01*
X212380476Y-107634523D01*
X213166666Y-107634523D01*
%TO.C,Q2*%
X215669047Y-94745476D02*
X215548095Y-94685000D01*
X215427142Y-94564047D01*
X215245714Y-94382619D01*
X215124761Y-94322142D01*
X215003809Y-94322142D01*
X215064285Y-94624523D02*
X214943333Y-94564047D01*
X214822380Y-94443095D01*
X214761904Y-94201190D01*
X214761904Y-93777857D01*
X214822380Y-93535952D01*
X214943333Y-93415000D01*
X215064285Y-93354523D01*
X215306190Y-93354523D01*
X215427142Y-93415000D01*
X215548095Y-93535952D01*
X215608571Y-93777857D01*
X215608571Y-94201190D01*
X215548095Y-94443095D01*
X215427142Y-94564047D01*
X215306190Y-94624523D01*
X215064285Y-94624523D01*
X216092380Y-93475476D02*
X216152857Y-93415000D01*
X216273809Y-93354523D01*
X216576190Y-93354523D01*
X216697142Y-93415000D01*
X216757619Y-93475476D01*
X216818095Y-93596428D01*
X216818095Y-93717380D01*
X216757619Y-93898809D01*
X216031904Y-94624523D01*
X216818095Y-94624523D01*
%TO.C,E1-P*%
X220919285Y-68768095D02*
X220919285Y-68344761D01*
X221584523Y-68163333D02*
X221584523Y-68768095D01*
X220314523Y-68768095D01*
X220314523Y-68163333D01*
X221584523Y-66953809D02*
X221584523Y-67679523D01*
X221584523Y-67316666D02*
X220314523Y-67316666D01*
X220495952Y-67437619D01*
X220616904Y-67558571D01*
X220677380Y-67679523D01*
X221100714Y-66409523D02*
X221100714Y-65441904D01*
X221584523Y-64837142D02*
X220314523Y-64837142D01*
X220314523Y-64353333D01*
X220375000Y-64232380D01*
X220435476Y-64171904D01*
X220556428Y-64111428D01*
X220737857Y-64111428D01*
X220858809Y-64171904D01*
X220919285Y-64232380D01*
X220979761Y-64353333D01*
X220979761Y-64837142D01*
%TO.C,TP9*%
X190164523Y-47222619D02*
X190164523Y-46496904D01*
X191434523Y-46859761D02*
X190164523Y-46859761D01*
X191434523Y-46073571D02*
X190164523Y-46073571D01*
X190164523Y-45589761D01*
X190225000Y-45468809D01*
X190285476Y-45408333D01*
X190406428Y-45347857D01*
X190587857Y-45347857D01*
X190708809Y-45408333D01*
X190769285Y-45468809D01*
X190829761Y-45589761D01*
X190829761Y-46073571D01*
X191434523Y-44743095D02*
X191434523Y-44501190D01*
X191374047Y-44380238D01*
X191313571Y-44319761D01*
X191132142Y-44198809D01*
X190890238Y-44138333D01*
X190406428Y-44138333D01*
X190285476Y-44198809D01*
X190225000Y-44259285D01*
X190164523Y-44380238D01*
X190164523Y-44622142D01*
X190225000Y-44743095D01*
X190285476Y-44803571D01*
X190406428Y-44864047D01*
X190708809Y-44864047D01*
X190829761Y-44803571D01*
X190890238Y-44743095D01*
X190950714Y-44622142D01*
X190950714Y-44380238D01*
X190890238Y-44259285D01*
X190829761Y-44198809D01*
X190708809Y-44138333D01*
%TO.C,J4*%
X212266666Y-71874523D02*
X212266666Y-72781666D01*
X212206190Y-72963095D01*
X212085238Y-73084047D01*
X211903809Y-73144523D01*
X211782857Y-73144523D01*
X213415714Y-72297857D02*
X213415714Y-73144523D01*
X213113333Y-71814047D02*
X212810952Y-72721190D01*
X213597142Y-72721190D01*
%TO.C,TP7*%
X189884523Y-111062619D02*
X189884523Y-110336904D01*
X191154523Y-110699761D02*
X189884523Y-110699761D01*
X191154523Y-109913571D02*
X189884523Y-109913571D01*
X189884523Y-109429761D01*
X189945000Y-109308809D01*
X190005476Y-109248333D01*
X190126428Y-109187857D01*
X190307857Y-109187857D01*
X190428809Y-109248333D01*
X190489285Y-109308809D01*
X190549761Y-109429761D01*
X190549761Y-109913571D01*
X189884523Y-108764523D02*
X189884523Y-107917857D01*
X191154523Y-108462142D01*
%TO.C,C1-P*%
X217827142Y-49453571D02*
X217766666Y-49514047D01*
X217585238Y-49574523D01*
X217464285Y-49574523D01*
X217282857Y-49514047D01*
X217161904Y-49393095D01*
X217101428Y-49272142D01*
X217040952Y-49030238D01*
X217040952Y-48848809D01*
X217101428Y-48606904D01*
X217161904Y-48485952D01*
X217282857Y-48365000D01*
X217464285Y-48304523D01*
X217585238Y-48304523D01*
X217766666Y-48365000D01*
X217827142Y-48425476D01*
X219036666Y-49574523D02*
X218310952Y-49574523D01*
X218673809Y-49574523D02*
X218673809Y-48304523D01*
X218552857Y-48485952D01*
X218431904Y-48606904D01*
X218310952Y-48667380D01*
X219580952Y-49090714D02*
X220548571Y-49090714D01*
X221153333Y-49574523D02*
X221153333Y-48304523D01*
X221637142Y-48304523D01*
X221758095Y-48365000D01*
X221818571Y-48425476D01*
X221879047Y-48546428D01*
X221879047Y-48727857D01*
X221818571Y-48848809D01*
X221758095Y-48909285D01*
X221637142Y-48969761D01*
X221153333Y-48969761D01*
%TO.C,C2-P*%
X213793571Y-91122857D02*
X213854047Y-91183333D01*
X213914523Y-91364761D01*
X213914523Y-91485714D01*
X213854047Y-91667142D01*
X213733095Y-91788095D01*
X213612142Y-91848571D01*
X213370238Y-91909047D01*
X213188809Y-91909047D01*
X212946904Y-91848571D01*
X212825952Y-91788095D01*
X212705000Y-91667142D01*
X212644523Y-91485714D01*
X212644523Y-91364761D01*
X212705000Y-91183333D01*
X212765476Y-91122857D01*
X212765476Y-90639047D02*
X212705000Y-90578571D01*
X212644523Y-90457619D01*
X212644523Y-90155238D01*
X212705000Y-90034285D01*
X212765476Y-89973809D01*
X212886428Y-89913333D01*
X213007380Y-89913333D01*
X213188809Y-89973809D01*
X213914523Y-90699523D01*
X213914523Y-89913333D01*
X213430714Y-89369047D02*
X213430714Y-88401428D01*
X213914523Y-87796666D02*
X212644523Y-87796666D01*
X212644523Y-87312857D01*
X212705000Y-87191904D01*
X212765476Y-87131428D01*
X212886428Y-87070952D01*
X213067857Y-87070952D01*
X213188809Y-87131428D01*
X213249285Y-87191904D01*
X213309761Y-87312857D01*
X213309761Y-87796666D01*
%TO.C,G2*%
X222155000Y-93712142D02*
X222094523Y-93833095D01*
X222094523Y-94014523D01*
X222155000Y-94195952D01*
X222275952Y-94316904D01*
X222396904Y-94377380D01*
X222638809Y-94437857D01*
X222820238Y-94437857D01*
X223062142Y-94377380D01*
X223183095Y-94316904D01*
X223304047Y-94195952D01*
X223364523Y-94014523D01*
X223364523Y-93893571D01*
X223304047Y-93712142D01*
X223243571Y-93651666D01*
X222820238Y-93651666D01*
X222820238Y-93893571D01*
X222215476Y-93167857D02*
X222155000Y-93107380D01*
X222094523Y-92986428D01*
X222094523Y-92684047D01*
X222155000Y-92563095D01*
X222215476Y-92502619D01*
X222336428Y-92442142D01*
X222457380Y-92442142D01*
X222638809Y-92502619D01*
X223364523Y-93228333D01*
X223364523Y-92442142D01*
%TO.C,E1*%
X223879285Y-65016904D02*
X223879285Y-64593571D01*
X224544523Y-64412142D02*
X224544523Y-65016904D01*
X223274523Y-65016904D01*
X223274523Y-64412142D01*
X224544523Y-63202619D02*
X224544523Y-63928333D01*
X224544523Y-63565476D02*
X223274523Y-63565476D01*
X223455952Y-63686428D01*
X223576904Y-63807380D01*
X223637380Y-63928333D01*
%TO.C,G1*%
X217497857Y-52575000D02*
X217376904Y-52514523D01*
X217195476Y-52514523D01*
X217014047Y-52575000D01*
X216893095Y-52695952D01*
X216832619Y-52816904D01*
X216772142Y-53058809D01*
X216772142Y-53240238D01*
X216832619Y-53482142D01*
X216893095Y-53603095D01*
X217014047Y-53724047D01*
X217195476Y-53784523D01*
X217316428Y-53784523D01*
X217497857Y-53724047D01*
X217558333Y-53663571D01*
X217558333Y-53240238D01*
X217316428Y-53240238D01*
X218767857Y-53784523D02*
X218042142Y-53784523D01*
X218405000Y-53784523D02*
X218405000Y-52514523D01*
X218284047Y-52695952D01*
X218163095Y-52816904D01*
X218042142Y-52877380D01*
%TO.C,R3*%
D11*
X216852380Y-69966666D02*
X216376190Y-70300000D01*
X216852380Y-70538095D02*
X215852380Y-70538095D01*
X215852380Y-70157142D01*
X215900000Y-70061904D01*
X215947619Y-70014285D01*
X216042857Y-69966666D01*
X216185714Y-69966666D01*
X216280952Y-70014285D01*
X216328571Y-70061904D01*
X216376190Y-70157142D01*
X216376190Y-70538095D01*
X215852380Y-69633333D02*
X215852380Y-69014285D01*
X216233333Y-69347619D01*
X216233333Y-69204761D01*
X216280952Y-69109523D01*
X216328571Y-69061904D01*
X216423809Y-69014285D01*
X216661904Y-69014285D01*
X216757142Y-69061904D01*
X216804761Y-69109523D01*
X216852380Y-69204761D01*
X216852380Y-69490476D01*
X216804761Y-69585714D01*
X216757142Y-69633333D01*
%TO.C,J9*%
D14*
X249536666Y-90664523D02*
X249536666Y-91571666D01*
X249476190Y-91753095D01*
X249355238Y-91874047D01*
X249173809Y-91934523D01*
X249052857Y-91934523D01*
X250201904Y-91934523D02*
X250443809Y-91934523D01*
X250564761Y-91874047D01*
X250625238Y-91813571D01*
X250746190Y-91632142D01*
X250806666Y-91390238D01*
X250806666Y-90906428D01*
X250746190Y-90785476D01*
X250685714Y-90725000D01*
X250564761Y-90664523D01*
X250322857Y-90664523D01*
X250201904Y-90725000D01*
X250141428Y-90785476D01*
X250080952Y-90906428D01*
X250080952Y-91208809D01*
X250141428Y-91329761D01*
X250201904Y-91390238D01*
X250322857Y-91450714D01*
X250564761Y-91450714D01*
X250685714Y-91390238D01*
X250746190Y-91329761D01*
X250806666Y-91208809D01*
%TO.C,J8*%
X205296666Y-106254523D02*
X205296666Y-107161666D01*
X205236190Y-107343095D01*
X205115238Y-107464047D01*
X204933809Y-107524523D01*
X204812857Y-107524523D01*
X206082857Y-106798809D02*
X205961904Y-106738333D01*
X205901428Y-106677857D01*
X205840952Y-106556904D01*
X205840952Y-106496428D01*
X205901428Y-106375476D01*
X205961904Y-106315000D01*
X206082857Y-106254523D01*
X206324761Y-106254523D01*
X206445714Y-106315000D01*
X206506190Y-106375476D01*
X206566666Y-106496428D01*
X206566666Y-106556904D01*
X206506190Y-106677857D01*
X206445714Y-106738333D01*
X206324761Y-106798809D01*
X206082857Y-106798809D01*
X205961904Y-106859285D01*
X205901428Y-106919761D01*
X205840952Y-107040714D01*
X205840952Y-107282619D01*
X205901428Y-107403571D01*
X205961904Y-107464047D01*
X206082857Y-107524523D01*
X206324761Y-107524523D01*
X206445714Y-107464047D01*
X206506190Y-107403571D01*
X206566666Y-107282619D01*
X206566666Y-107040714D01*
X206506190Y-106919761D01*
X206445714Y-106859285D01*
X206324761Y-106798809D01*
%TO.C,J7*%
X233246666Y-98534523D02*
X233246666Y-99441666D01*
X233186190Y-99623095D01*
X233065238Y-99744047D01*
X232883809Y-99804523D01*
X232762857Y-99804523D01*
X233730476Y-98534523D02*
X234577142Y-98534523D01*
X234032857Y-99804523D01*
%TO.C,J6*%
X205566666Y-72084523D02*
X205566666Y-72991666D01*
X205506190Y-73173095D01*
X205385238Y-73294047D01*
X205203809Y-73354523D01*
X205082857Y-73354523D01*
X206715714Y-72084523D02*
X206473809Y-72084523D01*
X206352857Y-72145000D01*
X206292380Y-72205476D01*
X206171428Y-72386904D01*
X206110952Y-72628809D01*
X206110952Y-73112619D01*
X206171428Y-73233571D01*
X206231904Y-73294047D01*
X206352857Y-73354523D01*
X206594761Y-73354523D01*
X206715714Y-73294047D01*
X206776190Y-73233571D01*
X206836666Y-73112619D01*
X206836666Y-72810238D01*
X206776190Y-72689285D01*
X206715714Y-72628809D01*
X206594761Y-72568333D01*
X206352857Y-72568333D01*
X206231904Y-72628809D01*
X206171428Y-72689285D01*
X206110952Y-72810238D01*
%TO.C,J5*%
X232316666Y-63944523D02*
X232316666Y-64851666D01*
X232256190Y-65033095D01*
X232135238Y-65154047D01*
X231953809Y-65214523D01*
X231832857Y-65214523D01*
X233526190Y-63944523D02*
X232921428Y-63944523D01*
X232860952Y-64549285D01*
X232921428Y-64488809D01*
X233042380Y-64428333D01*
X233344761Y-64428333D01*
X233465714Y-64488809D01*
X233526190Y-64549285D01*
X233586666Y-64670238D01*
X233586666Y-64972619D01*
X233526190Y-65093571D01*
X233465714Y-65154047D01*
X233344761Y-65214523D01*
X233042380Y-65214523D01*
X232921428Y-65154047D01*
X232860952Y-65093571D01*
%TO.C,J3*%
X240566666Y-63994523D02*
X240566666Y-64901666D01*
X240506190Y-65083095D01*
X240385238Y-65204047D01*
X240203809Y-65264523D01*
X240082857Y-65264523D01*
X241050476Y-63994523D02*
X241836666Y-63994523D01*
X241413333Y-64478333D01*
X241594761Y-64478333D01*
X241715714Y-64538809D01*
X241776190Y-64599285D01*
X241836666Y-64720238D01*
X241836666Y-65022619D01*
X241776190Y-65143571D01*
X241715714Y-65204047D01*
X241594761Y-65264523D01*
X241231904Y-65264523D01*
X241110952Y-65204047D01*
X241050476Y-65143571D01*
%TO.C,J1*%
X240316666Y-98474523D02*
X240316666Y-99381666D01*
X240256190Y-99563095D01*
X240135238Y-99684047D01*
X239953809Y-99744523D01*
X239832857Y-99744523D01*
X241586666Y-99744523D02*
X240860952Y-99744523D01*
X241223809Y-99744523D02*
X241223809Y-98474523D01*
X241102857Y-98655952D01*
X240981904Y-98776904D01*
X240860952Y-98837380D01*
%TD*%
M02*
