M48
; DRILL file {KiCad (5.1.12)-1} date 10/12/23 19:31:48
; FORMAT={-:-/ absolute / inch / decimal}
; #@! TF.CreationDate,2023-10-12T19:31:48+05:30
; #@! TF.GenerationSoftware,Kicad,Pcbnew,(5.1.12)-1
FMAT,2
INCH
T1C0.0394
T2C0.0433
T3C0.0472
T4C0.0520
T5C0.0591
T6C0.0665
T7C0.1260
%
G90
G05
T1
X9.0311Y-2.9457
X9.0327Y-4.3047
X9.1311Y-2.9457
X9.1327Y-4.3047
X9.2311Y-2.9457
X9.2327Y-4.3047
T2
X8.0591Y-2.6469
X8.0591Y-2.7469
X8.0591Y-4.0083
X8.0591Y-4.1083
X8.1591Y-2.6469
X8.1591Y-2.7469
X8.1591Y-4.0083
X8.1591Y-4.1083
X8.3126Y-2.6469
X8.3126Y-2.7469
X8.3126Y-4.0083
X8.3126Y-4.1083
X8.4126Y-2.6469
X8.4126Y-2.7469
X8.4126Y-4.0083
X8.4126Y-4.1083
X9.1409Y-2.6469
X9.1409Y-2.7469
X9.1465Y-4.0083
X9.1465Y-4.1083
X9.2409Y-2.6469
X9.2409Y-2.7469
X9.2465Y-4.0083
X9.2465Y-4.1083
X9.4256Y-2.6469
X9.4256Y-2.7469
X9.4311Y-4.0083
X9.4311Y-4.1083
X9.5256Y-2.6469
X9.5256Y-2.7469
X9.5311Y-4.0083
X9.5311Y-4.1083
T3
X2.889Y-2.4299
X2.889Y-3.9004
X3.678Y-2.4299
X3.678Y-3.8988
X4.1358Y-2.4299
X4.1358Y-3.9004
X4.9248Y-2.4299
X4.9248Y-3.8988
X5.3831Y-2.4299
X5.3831Y-3.9004
X6.172Y-2.4299
X6.172Y-3.8988
X6.6287Y-2.4299
X6.6287Y-3.9004
X7.4177Y-2.4299
X7.4177Y-3.8988
X8.0701Y-1.7728
X8.0701Y-4.5323
X8.126Y-3.0256
X8.126Y-3.2224
X8.2669Y-1.7728
X8.2669Y-4.5323
X9.7098Y-3.2469
X9.7098Y-3.4437
T4
X6.6307Y-4.265
X6.6343Y-2.0945
T5
X2.3803Y-2.4272
X2.3803Y-3.8937
T6
X8.0673Y-2.3512
X8.0673Y-3.7028
X8.2815Y-2.3512
X8.2815Y-3.7028
X8.4957Y-2.3512
X8.4957Y-3.7028
T7
X2.2693Y-1.6921
X2.2693Y-4.561
X6.0508Y-1.6921
X6.0508Y-4.561
X9.7602Y-1.7008
X9.7602Y-4.561
T0
M30
