%TF.GenerationSoftware,KiCad,Pcbnew,(5.1.12)-1*%
%TF.CreationDate,2023-10-12T19:31:41+05:30*%
%TF.ProjectId,DPT-V4,4450542d-5634-42e6-9b69-6361645f7063,rev?*%
%TF.SameCoordinates,Original*%
%TF.FileFunction,Soldermask,Bot*%
%TF.FilePolarity,Negative*%
%FSLAX46Y46*%
G04 Gerber Fmt 4.6, Leading zero omitted, Abs format (unit mm)*
G04 Created by KiCad (PCBNEW (5.1.12)-1) date 2023-10-12 19:31:41*
%MOMM*%
%LPD*%
G01*
G04 APERTURE LIST*
%ADD10C,3.200000*%
%ADD11C,1.980000*%
%ADD12C,1.800000*%
%ADD13R,1.800000X1.800000*%
%ADD14R,1.524000X1.524000*%
%ADD15O,1.700000X1.700000*%
%ADD16R,1.700000X1.700000*%
%ADD17C,2.535000*%
%ADD18R,2.535000X2.535000*%
%ADD19C,1.650000*%
%ADD20R,1.650000X1.650000*%
G04 APERTURE END LIST*
D10*
%TO.C,H6*%
X153690000Y-115850000D03*
%TD*%
%TO.C,H5*%
X153690000Y-42980000D03*
%TD*%
D11*
%TO.C,TP18*%
X60460000Y-98900000D03*
%TD*%
%TO.C,TP17*%
X60460000Y-61650000D03*
%TD*%
%TO.C,TP16*%
X168420000Y-108330000D03*
%TD*%
%TO.C,TP15*%
X168510000Y-53200000D03*
%TD*%
D12*
%TO.C,J14*%
X206400000Y-76850000D03*
D13*
X206400000Y-81850000D03*
%TD*%
D14*
%TO.C,C3*%
X168370000Y-61720000D03*
X168370000Y-99070000D03*
X188410000Y-99030000D03*
X188410000Y-61720000D03*
%TD*%
%TO.C,C1*%
X105050000Y-61720000D03*
X105050000Y-99070000D03*
X125090000Y-99030000D03*
X125090000Y-61720000D03*
%TD*%
%TO.C,C2*%
X136730000Y-61720000D03*
X136730000Y-99070000D03*
X156770000Y-99030000D03*
X156770000Y-61720000D03*
%TD*%
%TO.C,C4*%
X73380000Y-61720000D03*
X73380000Y-99070000D03*
X93420000Y-99030000D03*
X93420000Y-61720000D03*
%TD*%
D15*
%TO.C,J15*%
X234470000Y-74820000D03*
X231930000Y-74820000D03*
D16*
X229390000Y-74820000D03*
%TD*%
D15*
%TO.C,J13*%
X234510000Y-109340000D03*
X231970000Y-109340000D03*
D16*
X229430000Y-109340000D03*
%TD*%
D10*
%TO.C,H1*%
X57640000Y-42980000D03*
%TD*%
D17*
%TO.C,Q1*%
X204910000Y-59720000D03*
X210350000Y-59720000D03*
D18*
X215790000Y-59720000D03*
%TD*%
D12*
%TO.C,J12*%
X204980000Y-115120000D03*
D13*
X209980000Y-115120000D03*
%TD*%
D12*
%TO.C,J11*%
X204980000Y-45030000D03*
D13*
X209980000Y-45030000D03*
%TD*%
D19*
%TO.C,J2*%
X211140000Y-104350000D03*
X211140000Y-101810000D03*
X213680000Y-104350000D03*
D20*
X213680000Y-101810000D03*
%TD*%
D17*
%TO.C,Q2*%
X204910000Y-94050000D03*
X210350000Y-94050000D03*
D18*
X215790000Y-94050000D03*
%TD*%
D10*
%TO.C,H4*%
X247910000Y-115850000D03*
%TD*%
%TO.C,H3*%
X247910000Y-43200000D03*
%TD*%
%TO.C,H2*%
X57640000Y-115850000D03*
%TD*%
D19*
%TO.C,J4*%
X211140000Y-69770000D03*
X211140000Y-67230000D03*
X213680000Y-69770000D03*
D20*
X213680000Y-67230000D03*
%TD*%
D12*
%TO.C,J9*%
X246630000Y-87470000D03*
D13*
X246630000Y-82470000D03*
%TD*%
D19*
%TO.C,J8*%
X204700000Y-104350000D03*
X204700000Y-101810000D03*
X207240000Y-104350000D03*
D20*
X207240000Y-101810000D03*
%TD*%
D19*
%TO.C,J7*%
X232320000Y-104350000D03*
X232320000Y-101810000D03*
X234860000Y-104350000D03*
D20*
X234860000Y-101810000D03*
%TD*%
D19*
%TO.C,J6*%
X204700000Y-69770000D03*
X204700000Y-67230000D03*
X207240000Y-69770000D03*
D20*
X207240000Y-67230000D03*
%TD*%
D19*
%TO.C,J5*%
X232180000Y-69770000D03*
X232180000Y-67230000D03*
X234720000Y-69770000D03*
D20*
X234720000Y-67230000D03*
%TD*%
D19*
%TO.C,J3*%
X239410000Y-69770000D03*
X239410000Y-67230000D03*
X241950000Y-69770000D03*
D20*
X241950000Y-67230000D03*
%TD*%
D19*
%TO.C,J1*%
X239550000Y-104350000D03*
X239550000Y-101810000D03*
X242090000Y-104350000D03*
D20*
X242090000Y-101810000D03*
%TD*%
M02*
